<svg width="600" height="440" viewBox="0 0 600 440" fill="none" xmlns="http://www.w3.org/2000/svg">
<rect width="600" height="440" fill="white" style="fill:white;fill-opacity:1;"/>
<path d="M600 230.582L488.695 168.475L378.78 366.241L496.187 432.147L600 230.582Z" fill="#EDF7F0" style="fill:#EDF7F0;fill:color(display-p3 0.9294 0.9686 0.9412);fill-opacity:1;"/>
<path d="M205.33 180.507L171.799 162.1L131.683 227.574L158.453 242.824L176.947 229.998L205.33 180.507Z" fill="#EDF7F0" style="fill:#EDF7F0;fill:color(display-p3 0.9294 0.9686 0.9412);fill-opacity:1;"/>
<path d="M321.523 77.293L309.808 99.3737L352.897 122.847L365.023 100.91L321.523 77.293Z" fill="#EDF7F0" style="fill:#EDF7F0;fill:color(display-p3 0.9294 0.9686 0.9412);fill-opacity:1;"/>
<path d="M592.901 170.894L596.732 164.082L519.381 121.115L579.017 14.0485L572.142 10.2733L512.517 117.316L456.246 86.0584L494.38 17.1334L487.499 13.3763L449.394 82.2533L396.494 52.8683L416.425 17.1454L409.556 13.3643L376.877 71.9361L339.799 51.914L358.8 17.1094L351.895 13.3883L332.9 48.1869L294.463 27.4326L303.308 11.5157L296.432 7.74656L287.563 23.7054L272.181 15.3989L268.429 22.253L283.763 30.5355L274.683 46.8785L217.547 15.4109L213.741 22.235L270.888 53.7086L261.572 70.4717L198.431 35.7391L204.412 3.35323L199.658 2.48896L193.966 33.2843L181.738 26.5563L184.989 20.7105L178.113 16.9414L149.941 67.6508L26.9759 0.814453L24.6559 5.02774L147.615 71.8461L139.181 87.0187L57.4317 42.089L55.0936 46.2903L136.849 91.226L115.866 128.983L32.4677 83.2496L30.1296 87.4508L113.528 133.185L104.514 149.414L17.1522 100.733L14.7899 104.922L102.182 153.627L91.6756 172.539L3.15372 124.02L0.821655 128.221L89.3375 176.734L79.4353 194.559L24.7163 164.082L20.8738 170.888L75.6412 201.39L64.9837 220.577L23.9732 197.932L21.623 202.128L62.6456 224.779L25.3627 291.879L32.2381 295.648L45.0403 272.607L86.2563 296.633L41.3791 369.315L45.4995 371.823L90.425 299.057L139.253 327.518L134.481 353.548L106.369 394.402L90.9869 422.335L97.8743 426.08L113.075 398.49L141.912 356.585L162.169 246.103L174.337 237.262L177.612 271.683L161.16 383.071V399.924L147.18 436.445L154.521 439.218L169.015 401.358V383.641L178.669 318.257L225.135 343.915L178.125 428.175L184.995 431.956L231.998 347.702L286.023 377.537L256.026 431.758L262.907 435.515L292.886 381.324L348.384 411.97L337.37 431.74L344.246 435.515L380.194 370.983L454.113 412.15L457.955 405.344L384 364.159L489.789 174.231L580.371 224.112L584.177 217.288L493.589 167.401L515.574 127.927L592.895 170.876L592.901 170.894ZM508.723 124.134L500.597 138.724L444.017 108.169L452.476 92.8825L508.729 124.128L508.723 124.134ZM461.949 208.112L405.611 177.586L415.114 160.409L471.301 191.318L461.949 208.112ZM414.734 292.881L358.8 262.206L379.583 224.641L435.595 255.43L414.734 292.887V292.881ZM135.635 225.853L172.784 165.679L200.298 180.767L174.555 227.095L158.454 238.559L135.628 225.847L135.635 225.853ZM419.821 135.712L410.577 152.427L357.308 123.126L366.63 106.423L419.827 135.718L419.821 135.712ZM328.169 301.38L274.217 272.055L283.026 256.264L336.259 286.76L328.175 301.374L328.169 301.38ZM249.441 207.721L289.019 229.43L278.561 248.174L239.49 225.787L249.441 207.721V207.721ZM235.303 223.386L197.597 201.786L207.173 184.548L245.205 205.405L235.297 223.392L235.303 223.386ZM285.37 252.069L295.901 233.199L349.605 262.65L338.591 282.558L285.376 252.069H285.37ZM298.239 228.998L319.191 191.445L372.714 220.865L351.925 258.437L298.239 228.992V228.998ZM321.529 187.249L342.844 149.048L396.391 178.066L375.04 216.664L321.529 187.255V187.249ZM345.188 144.846L354.964 127.321L408.251 156.634L398.723 173.853L345.188 144.846V144.846ZM291.364 225.229L251.761 203.508L272.532 165.799L312.316 187.669L291.364 225.229V225.229ZM247.531 201.191L209.518 180.341L230.446 142.668L268.303 163.476L247.531 201.185V201.191ZM202.642 176.572L175.213 161.531L183.466 116.848L223.576 138.893L202.642 176.572V176.572ZM195.265 205.993L232.983 227.606L223.637 244.579L185.381 223.788L195.265 205.999V205.993ZM237.176 230.006L276.223 252.381L267.33 268.328L227.878 246.889L237.176 230.012V230.006ZM264.986 272.523L254.183 291.885L215.082 270.11L225.552 251.097L264.98 272.523H264.986ZM271.873 276.268L325.843 305.599L314.763 325.621L261.028 295.696L271.867 276.262L271.873 276.268ZM381.915 220.445L403.291 181.806L459.617 212.325L437.939 251.235L381.915 220.439V220.445ZM423.609 128.887L370.436 99.6045L379.988 82.4873L433.342 111.296L423.609 128.887ZM359.761 102.647L350.439 119.357L313.959 99.2864L323.136 82.4753L359.761 102.647V102.647ZM348.094 123.552L338.295 141.119L301.888 121.391L311.651 103.506L348.094 123.552ZM294.995 117.652L256.068 96.5616L266.128 78.4601L304.782 99.7246L294.995 117.652ZM253.736 100.763L335.957 145.314L314.666 183.474L274.858 161.591L285.908 141.527L243.798 118.642L253.736 100.757V100.763ZM279.347 143.436L270.629 159.269L232.79 138.466L241.466 122.844L279.347 143.43V143.436ZM225.915 134.691L184.39 111.866L187.756 93.6567L234.572 119.098L225.915 134.685V134.691ZM179.932 109.418L146.068 90.8059L154.521 75.5972L183.291 91.232L179.932 109.418V109.418ZM179.013 114.399L170.755 159.083L122.76 132.759L143.736 95.0071L179.013 114.399V114.399ZM168.561 163.368L158.575 179.543L111.383 153.243L120.428 136.972L168.561 163.368V163.368ZM156.043 183.636L144.89 201.696L98.5631 176.308L109.045 157.45L156.043 183.642V183.636ZM142.365 205.789L131.424 223.506L86.2986 198.377L96.231 180.503L142.365 205.789ZM127.315 230.162L115.884 248.678L71.8591 224.371L82.5044 205.213L127.315 230.168V230.162ZM181.599 230.594L183.049 227.984L221.323 248.786L210.877 267.758L183.702 252.621L181.605 230.594H181.599ZM257.228 302.514L310.987 332.451L301.84 348.986L247.918 319.211L257.234 302.508L257.228 302.514ZM317.838 336.269L373.36 367.19L364.292 383.473L308.709 352.786L317.844 336.275L317.838 336.269ZM321.62 329.433L356.48 266.425L412.401 297.095L377.161 360.366L321.62 329.439V329.433ZM417.452 156.214L426.696 139.505L482.931 170.474L473.651 187.135L417.452 156.22V156.214ZM430.478 132.669L440.241 115.023L496.803 145.567L486.732 163.65L430.478 132.675V132.669ZM445.624 89.0893L437.124 104.46L383.794 75.6632L392.706 59.6924L445.63 89.0893H445.624ZM373.083 78.7602L363.567 95.8234L326.876 75.6212L336.072 58.7801L373.083 78.7662V78.7602ZM290.675 34.2566L329.166 55.041L320.001 71.8281L281.564 50.6596L290.675 34.2566V34.2566ZM277.764 57.4897L316.255 78.6822L307.078 95.4933L268.454 74.2468L277.764 57.4837V57.4897ZM259.246 74.6729L236.898 114.897L188.662 88.6812L197.525 40.7146L259.246 74.6669V74.6729ZM193.06 38.2659L184.191 86.2565L156.835 71.3899L179.412 30.7576L193.06 38.2659V38.2659ZM47.3724 268.406L69.5089 228.566L113.341 252.765L88.7817 292.539L47.3724 268.406V268.406ZM140.178 322.5L92.9504 294.976L117.564 255.106L149.319 272.637L140.178 322.5V322.5ZM150.237 267.65L120.101 251.013L131.52 232.515L154.345 245.227L150.231 267.65H150.237ZM250.371 298.697L241.043 315.424L183.768 283.801L185.526 271.893L184.59 262.062L250.377 298.697H250.371ZM179.424 313.186L183.013 288.878L238.699 319.626L227.485 339.726L179.424 313.186ZM234.349 343.513L245.562 323.413L299.502 353.194L288.361 373.336L234.349 343.513ZM295.224 377.129L306.365 356.987L361.936 387.668L350.735 407.78L295.224 377.129Z" fill="#F5F5F5" stroke="#E8E8E8" style="fill:#F5F5F5;fill:color(display-p3 0.9608 0.9608 0.9608);fill-opacity:1;stroke:#E8E8E8;stroke:color(display-p3 0.9085 0.9085 0.9085);stroke-opacity:1;" stroke-width="1.20037" stroke-miterlimit="10"/>
<path d="M402.971 374.742L433.064 320.684L450.18 315.426L457.267 302.516L471.301 306.754L482.919 286.714L474.443 276.258L482.919 244.569L476.37 235.08L496.791 197.37L512.741 199.069L518.094 189.832" stroke="#008C29" style="stroke:#008C29;stroke:color(display-p3 0.0000 0.5490 0.1608);stroke-opacity:1;" stroke-width="1.20037" stroke-linecap="round" stroke-linejoin="round"/>
<path d="M415.591 352.073L423.596 374.742L441.836 383.469L473.349 373.337L497.89 337.897L521.766 263.762L537.686 232.937V206.439L512.74 199.068" stroke="#008C29" style="stroke:#008C29;stroke:color(display-p3 0.0000 0.5490 0.1608);stroke-opacity:1;" stroke-width="1.20037" stroke-linecap="round" stroke-linejoin="round"/>
<path d="M422.479 303.277L495.752 340.987" stroke="#008C29" style="stroke:#008C29;stroke:color(display-p3 0.0000 0.5490 0.1608);stroke-opacity:1;" stroke-width="1.20037" stroke-linecap="round" stroke-linejoin="round"/>
<path d="M419.083 345.788L413.44 331.714V318.702L452.995 251.229L468.317 234.568L469.972 221.394L485.227 195.622L489.39 184.267L496.791 183.469L515.87 193.666" stroke="#008C29" style="stroke:#008C29;stroke:color(display-p3 0.0000 0.5490 0.1608);stroke-opacity:1;" stroke-width="1.20037" stroke-linecap="round" stroke-linejoin="round"/>
<path d="M452.995 251.229L478.02 262.878L493.891 285.181L501.848 289.232L522.232 284.797L538.732 292.887" stroke="#008C29" style="stroke:#008C29;stroke:color(display-p3 0.0000 0.5490 0.1608);stroke-opacity:1;" stroke-width="1.20037" stroke-linecap="round" stroke-linejoin="round"/>
<path d="M168.507 209.556C172.704 209.556 176.107 206.175 176.107 202.005C176.107 197.835 172.704 194.455 168.507 194.455C164.309 194.455 160.906 197.835 160.906 202.005C160.906 206.175 164.309 209.556 168.507 209.556Z" stroke="#008C29" style="stroke:#008C29;stroke:color(display-p3 0.0000 0.5490 0.1608);stroke-opacity:1;" stroke-width="1.20037" stroke-linecap="round" stroke-linejoin="round"/>
<path d="M171.63 173.374L176.439 171.928L185.061 176.351L193.156 180.504L194.159 185.21L172.331 223.387L159.112 231.466L141.694 222.613L171.63 173.374Z" stroke="#008C29" style="stroke:#008C29;stroke:color(display-p3 0.0000 0.5490 0.1608);stroke-opacity:1;" stroke-width="1.20037" stroke-linecap="round" stroke-linejoin="round"/>
<path d="M172.561 195.626L184.179 175.904" stroke="#008C29" style="stroke:#008C29;stroke:color(display-p3 0.0000 0.5490 0.1608);stroke-opacity:1;" stroke-width="1.20037" stroke-linecap="round" stroke-linejoin="round"/>
<path d="M152.696 227.983L164.205 208.465" stroke="#008C29" style="stroke:#008C29;stroke:color(display-p3 0.0000 0.5490 0.1608);stroke-opacity:1;" stroke-width="1.20037" stroke-linecap="round" stroke-linejoin="round"/>
<path d="M180.53 209.045L174.959 205.99" stroke="#008C29" style="stroke:#008C29;stroke:color(display-p3 0.0000 0.5490 0.1608);stroke-opacity:1;" stroke-width="1.20037" stroke-linecap="round" stroke-linejoin="round"/>
<path d="M161.668 198.47L157.862 196.363" stroke="#008C29" style="stroke:#008C29;stroke:color(display-p3 0.0000 0.5490 0.1608);stroke-opacity:1;" stroke-width="1.20037" stroke-linecap="round" stroke-linejoin="round"/>
<path d="M195.226 107.244H162.035" stroke="#5D3EBC" style="stroke:#5D3EBC;stroke:color(display-p3 0.3647 0.2431 0.7373);stroke-opacity:1;" stroke-width="3.44837" stroke-linecap="round" stroke-linejoin="round"/>
<path d="M188.616 69.3125C190.521 69.3125 192.064 70.8563 192.064 72.7607V107.244H165.196V72.7607C165.196 70.8564 166.74 69.3126 168.644 69.3125H188.616ZM174.68 92.1582C174.203 92.1582 173.817 92.5444 173.817 93.0205C173.818 93.4964 174.204 93.8828 174.68 93.8828H182.582C183.058 93.8826 183.444 93.4963 183.444 93.0205C183.444 92.5445 183.058 92.1584 182.582 92.1582H174.68ZM170.8 73.1914C169.848 73.1916 169.075 73.964 169.075 74.916V87.416C169.075 88.3682 169.848 89.1405 170.8 89.1406H186.461C187.413 89.1406 188.185 88.3683 188.185 87.416V74.916C188.185 73.9639 187.413 73.1914 186.461 73.1914H170.8ZM174.607 87.416H170.8V84.3994H174.607V87.416ZM186.461 87.416H176.332V74.916H186.461V87.416ZM174.607 82.6748H170.8V74.916H174.607V82.6748Z" fill="#5D3EBC" style="fill:#5D3EBC;fill:color(display-p3 0.3647 0.2431 0.7373);fill-opacity:1;"/>
<path d="M438.373 134.832H405.183" stroke="#5D3EBC" style="stroke:#5D3EBC;stroke:color(display-p3 0.3647 0.2431 0.7373);stroke-opacity:1;" stroke-width="3.44837" stroke-linecap="round" stroke-linejoin="round"/>
<path d="M431.764 96.9004C433.668 96.9004 435.212 98.4442 435.212 100.349V134.832H408.344V100.349C408.344 98.4443 409.888 96.9005 411.792 96.9004H431.764ZM417.827 119.746C417.351 119.746 416.965 120.132 416.965 120.608C416.965 121.084 417.351 121.471 417.827 121.471H425.729C426.205 121.47 426.591 121.084 426.592 120.608C426.592 120.132 426.205 119.746 425.729 119.746H417.827ZM413.947 100.779C412.995 100.779 412.223 101.552 412.223 102.504V115.004C412.223 115.956 412.995 116.728 413.947 116.729H429.608C430.561 116.729 431.333 115.956 431.333 115.004V102.504C431.333 101.552 430.56 100.779 429.608 100.779H413.947ZM417.755 115.004H413.947V111.987H417.755V115.004ZM429.608 115.004H419.479V102.504H429.608V115.004ZM417.755 110.263H413.947V102.504H417.755V110.263Z" fill="#5D3EBC" style="fill:#5D3EBC;fill:color(display-p3 0.3647 0.2431 0.7373);fill-opacity:1;"/>
<path d="M453.855 254.553H420.665" stroke="#5D3EBC" style="stroke:#5D3EBC;stroke:color(display-p3 0.3647 0.2431 0.7373);stroke-opacity:1;" stroke-width="3.44837" stroke-linecap="round" stroke-linejoin="round"/>
<path d="M447.245 216.621C449.15 216.621 450.694 218.165 450.694 220.069V254.553H423.825V220.069C423.826 218.165 425.369 216.621 427.274 216.621H447.245ZM433.309 239.467C432.833 239.467 432.447 239.853 432.447 240.329C432.447 240.805 432.833 241.191 433.309 241.191H441.211C441.687 241.191 442.073 240.805 442.073 240.329C442.073 239.853 441.687 239.467 441.211 239.467H433.309ZM429.429 220.5C428.477 220.5 427.705 221.273 427.704 222.225V234.725C427.704 235.677 428.477 236.449 429.429 236.449H445.09C446.042 236.449 446.815 235.677 446.815 234.725V222.225C446.815 221.273 446.042 220.5 445.09 220.5H429.429ZM433.237 234.725H429.429V231.708H433.237V234.725ZM445.09 234.725H434.961V222.225H445.09V234.725ZM433.237 229.983H429.429V222.225H433.237V229.983Z" fill="#5D3EBC" style="fill:#5D3EBC;fill:color(display-p3 0.3647 0.2431 0.7373);fill-opacity:1;"/>
<path d="M248.855 343.553H215.665" stroke="#5D3EBC" style="stroke:#5D3EBC;stroke:color(display-p3 0.3647 0.2431 0.7373);stroke-opacity:1;" stroke-width="3.44837" stroke-linecap="round" stroke-linejoin="round"/>
<path d="M242.245 305.621C244.15 305.621 245.694 307.165 245.694 309.069V343.553H218.825V309.069C218.826 307.165 220.369 305.621 222.274 305.621H242.245ZM228.309 328.467C227.833 328.467 227.447 328.853 227.447 329.329C227.447 329.805 227.833 330.191 228.309 330.191H236.211C236.687 330.191 237.073 329.805 237.073 329.329C237.073 328.853 236.687 328.467 236.211 328.467H228.309ZM224.429 309.5C223.477 309.5 222.705 310.273 222.704 311.225V323.725C222.704 324.677 223.477 325.449 224.429 325.449H240.09C241.042 325.449 241.815 324.677 241.815 323.725V311.225C241.815 310.273 241.042 309.5 240.09 309.5H224.429ZM228.237 323.725H224.429V320.708H228.237V323.725ZM240.09 323.725H229.961V311.225H240.09V323.725ZM228.237 318.983H224.429V311.225H228.237V318.983Z" fill="#5D3EBC" style="fill:#5D3EBC;fill:color(display-p3 0.3647 0.2431 0.7373);fill-opacity:1;"/>
<path d="M292.855 167.553H259.665" stroke="#5D3EBC" style="stroke:#5D3EBC;stroke:color(display-p3 0.3647 0.2431 0.7373);stroke-opacity:1;" stroke-width="3.44837" stroke-linecap="round" stroke-linejoin="round"/>
<path d="M286.245 129.621C288.15 129.621 289.694 131.165 289.694 133.069V167.553H262.825V133.069C262.826 131.165 264.369 129.621 266.274 129.621H286.245ZM272.309 152.467C271.833 152.467 271.447 152.853 271.447 153.329C271.447 153.805 271.833 154.191 272.309 154.191H280.211C280.687 154.191 281.073 153.805 281.073 153.329C281.073 152.853 280.687 152.467 280.211 152.467H272.309ZM268.429 133.5C267.477 133.5 266.705 134.273 266.704 135.225V147.725C266.704 148.677 267.477 149.449 268.429 149.449H284.09C285.042 149.449 285.815 148.677 285.815 147.725V135.225C285.815 134.273 285.042 133.5 284.09 133.5H268.429ZM272.237 147.725H268.429V144.708H272.237V147.725ZM284.09 147.725H273.961V135.225H284.09V147.725ZM272.237 142.983H268.429V135.225H272.237V142.983Z" fill="#5D3EBC" style="fill:#5D3EBC;fill:color(display-p3 0.3647 0.2431 0.7373);fill-opacity:1;"/>
<path d="M396.855 359.553H363.665" stroke="#5D3EBC" style="stroke:#5D3EBC;stroke:color(display-p3 0.3647 0.2431 0.7373);stroke-opacity:1;" stroke-width="3.44837" stroke-linecap="round" stroke-linejoin="round"/>
<path d="M390.245 321.621C392.15 321.621 393.694 323.165 393.694 325.069V359.553H366.825V325.069C366.826 323.165 368.369 321.621 370.274 321.621H390.245ZM376.309 344.467C375.833 344.467 375.447 344.853 375.447 345.329C375.447 345.805 375.833 346.191 376.309 346.191H384.211C384.687 346.191 385.073 345.805 385.073 345.329C385.073 344.853 384.687 344.467 384.211 344.467H376.309ZM372.429 325.5C371.477 325.5 370.705 326.273 370.704 327.225V339.725C370.704 340.677 371.477 341.449 372.429 341.449H388.09C389.042 341.449 389.815 340.677 389.815 339.725V327.225C389.815 326.273 389.042 325.5 388.09 325.5H372.429ZM376.237 339.725H372.429V336.708H376.237V339.725ZM388.09 339.725H377.961V327.225H388.09V339.725ZM376.237 334.983H372.429V327.225H376.237V334.983Z" fill="#5D3EBC" style="fill:#5D3EBC;fill:color(display-p3 0.3647 0.2431 0.7373);fill-opacity:1;"/>
<path d="M162.168 288.014H128.978" stroke="#5D3EBC" style="stroke:#5D3EBC;stroke:color(display-p3 0.3647 0.2431 0.7373);stroke-opacity:1;" stroke-width="3.44837" stroke-linecap="round" stroke-linejoin="round"/>
<path d="M155.558 250.082C157.463 250.082 159.007 251.626 159.007 253.53V288.014H132.138V253.53C132.139 251.626 133.682 250.082 135.587 250.082H155.558ZM141.622 272.928C141.146 272.928 140.76 273.314 140.76 273.79C140.76 274.266 141.146 274.652 141.622 274.652H149.524C150 274.652 150.386 274.266 150.387 273.79C150.387 273.314 150 272.928 149.524 272.928H141.622ZM137.742 253.961C136.79 253.961 136.018 254.734 136.017 255.686V268.186C136.017 269.138 136.79 269.91 137.742 269.91H153.403C154.355 269.91 155.128 269.138 155.128 268.186V255.686C155.128 254.733 154.355 253.961 153.403 253.961H137.742ZM141.55 268.186H137.742V265.169H141.55V268.186ZM153.403 268.186H143.274V255.686H153.403V268.186ZM141.55 263.444H137.742V255.686H141.55V263.444Z" fill="#5D3EBC" style="fill:#5D3EBC;fill:color(display-p3 0.3647 0.2431 0.7373);fill-opacity:1;"/>
<rect x="0.319458" width="596" height="439" fill="url(#paint0_radial_21798_43713)"/>
<defs>
<radialGradient id="paint0_radial_21798_43713" cx="0" cy="0" r="1" gradientUnits="userSpaceOnUse" gradientTransform="translate(298.319 219.5) rotate(90) scale(219.5 298)">
<stop stop-color="white" stop-opacity="0" style="stop-color:none;stop-opacity:0;"/>
<stop offset="1" stop-color="white" style="stop-color:white;stop-opacity:1;"/>
</radialGradient>
</defs>
</svg>
