<svg preserveAspectRatio="none" overflow="visible" style="display: block;" width="61.2549" height="54.3606" viewBox="0 0 61.2549 54.3606" fill="none" xmlns="http://www.w3.org/2000/svg">
<g id="Group 427326715">
<path id="Path" d="M42.6575 39.8169L47.2084 22.246C47.5664 20.8658 47.3478 19.3871 46.6007 18.1363C45.8537 16.8855 44.6396 15.9653 43.2265 15.579L16.5945 8.22663C15.1823 7.8366 13.6857 8.01184 12.435 8.71368C11.1842 9.41551 10.2822 10.5862 9.92787 11.9675L5.87676 27.5654C5.13213 30.4413 6.9061 33.4319 9.84524 34.2557L15.1695 35.7187" stroke="#FFD300" stroke-width="2.57143" stroke-linecap="round" stroke-linejoin="round"/>
<rect id="Rectangle 34624484" x="12.3198" y="51.2464" width="34.2857" height="48" rx="7.38462" transform="rotate(-90 12.3198 51.2464)" fill="#5D3EBC"/>
<g id="Rectangle 34624485" filter="url(#filter0_di_0_27)">
<rect x="15.7495" y="47.8167" width="27.4286" height="41.1429" rx="5.53846" transform="rotate(-90 15.7495 47.8167)" fill="url(#paint0_linear_0_27)"/>
</g>
<path id="Rectangle 34624487" d="M18.8569 40.6947C18.8569 42.7339 20.51 44.387 22.5492 44.387L49.4503 44.387C51.4895 44.387 53.1426 42.7339 53.1426 40.6947L53.1426 35.8156L18.8569 35.8156L18.8569 40.6947Z" fill="url(#paint1_linear_0_27)" fill-opacity="0.2"/>
<g id="Group 427326772" filter="url(#filter1_d_0_27)">
<path id="Vector 1834" d="M51.7475 42.6801L51.7475 40.9658" stroke="white" stroke-width="2.57143" stroke-linecap="round"/>
<path id="Vector 1837" d="M51.7475 35.8246L51.7475 34.1103" stroke="white" stroke-width="2.57143" stroke-linecap="round"/>
<path id="Vector 1835" d="M44.8901 42.6801L44.8901 26.0647" stroke="white" stroke-width="2.57143" stroke-linecap="round"/>
</g>
</g>
<defs>
<filter id="filter0_di_0_27" x="11.3869" y="18.2068" width="49.8681" height="36.1538" filterUnits="userSpaceOnUse" color-interpolation-filters="sRGB">
<feFlood flood-opacity="0" result="BackgroundImageFix"/>
<feColorMatrix in="SourceAlpha" type="matrix" values="0 0 0 0 0 0 0 0 0 0 0 0 0 0 0 0 0 0 127 0" result="hardAlpha"/>
<feOffset dy="2.1813"/>
<feGaussianBlur stdDeviation="2.1813"/>
<feComposite in2="hardAlpha" operator="out"/>
<feColorMatrix type="matrix" values="0 0 0 0 0 0 0 0 0 0 0 0 0 0 0 0 0 0 0.25 0"/>
<feBlend mode="normal" in2="BackgroundImageFix" result="effect1_dropShadow_0_27"/>
<feBlend mode="normal" in="SourceGraphic" in2="effect1_dropShadow_0_27" result="shape"/>
<feColorMatrix in="SourceAlpha" type="matrix" values="0 0 0 0 0 0 0 0 0 0 0 0 0 0 0 0 0 0 127 0" result="hardAlpha"/>
<feOffset dx="-0.654391" dy="0.654391"/>
<feGaussianBlur stdDeviation="0.545326"/>
<feComposite in2="hardAlpha" operator="arithmetic" k2="-1" k3="1"/>
<feColorMatrix type="matrix" values="0 0 0 0 1 0 0 0 0 1 0 0 0 0 1 0 0 0 0.25 0"/>
<feBlend mode="normal" in2="shape" result="effect2_innerShadow_0_27"/>
</filter>
<filter id="filter1_d_0_27" x="42.7472" y="24.779" width="11.1431" height="20.9011" filterUnits="userSpaceOnUse" color-interpolation-filters="sRGB">
<feFlood flood-opacity="0" result="BackgroundImageFix"/>
<feColorMatrix in="SourceAlpha" type="matrix" values="0 0 0 0 0 0 0 0 0 0 0 0 0 0 0 0 0 0 127 0" result="hardAlpha"/>
<feOffset dy="0.857143"/>
<feGaussianBlur stdDeviation="0.428571"/>
<feComposite in2="hardAlpha" operator="out"/>
<feColorMatrix type="matrix" values="0 0 0 0 0 0 0 0 0 0 0 0 0 0 0 0 0 0 0.15 0"/>
<feBlend mode="normal" in2="BackgroundImageFix" result="effect1_dropShadow_0_27"/>
<feBlend mode="normal" in="SourceGraphic" in2="effect1_dropShadow_0_27" result="shape"/>
</filter>
<linearGradient id="paint0_linear_0_27" x1="49.5077" y1="26.1024" x2="9.27217" y2="42.7128" gradientUnits="userSpaceOnUse">
<stop stop-color="#C8BEE7"/>
<stop offset="1" stop-color="#5D3EBC"/>
</linearGradient>
<linearGradient id="paint1_linear_0_27" x1="18.8569" y1="40.1013" x2="44.5712" y2="40.1013" gradientUnits="userSpaceOnUse">
<stop stop-color="white"/>
<stop offset="1" stop-color="white" stop-opacity="0"/>
</linearGradient>
</defs>
</svg>
