<svg preserveAspectRatio="none" overflow="visible" style="display: block;" width="32" height="32" viewBox="0 0 32 32" fill="none" xmlns="http://www.w3.org/2000/svg">
<g id="United-states_flag_icon_round 1" clip-path="url(#clip0_0_87)">
<path id="Vector" d="M16.002 32C24.8385 32 32.002 24.8366 32.002 16C32.002 7.16344 24.8385 0 16.002 0C7.1654 0 0.00195312 7.16344 0.00195312 16C0.00195312 24.8366 7.1654 32 16.002 32Z" fill="#F0F0F0"/>
<g id="Group">
<path id="Vector_2" d="M15.3099 15.9999H32.0055C32.0055 14.5558 31.813 13.1568 31.4543 11.826H15.3099V15.9999Z" fill="#D80027"/>
<path id="Vector_3" d="M15.3099 7.65359H29.6571C28.6777 6.05534 27.4254 4.64265 25.9653 3.47965H15.3099V7.65359Z" fill="#D80027"/>
<path id="Vector_4" d="M16.0092 31.9983C19.7748 31.9983 23.2359 30.6968 25.969 28.52H6.04948C8.7826 30.6968 12.2437 31.9983 16.0092 31.9983Z" fill="#D80027"/>
<path id="Vector_5" d="M2.35708 24.3476H29.6603C30.4466 23.0645 31.0565 21.662 31.4575 20.1737H0.559896C0.960958 21.662 1.57077 23.0645 2.35708 24.3476Z" fill="#D80027"/>
</g>
<path id="Vector_6" d="M7.41345 2.49863H8.87152L7.51527 3.48394L8.03333 5.07825L6.67714 4.09294L5.32095 5.07825L5.76845 3.70094C4.57433 4.69563 3.5277 5.861 2.6652 7.1595H3.13239L2.26908 7.78669C2.13458 8.01106 2.00558 8.239 1.88195 8.47031L2.2942 9.73913L1.52508 9.18031C1.33389 9.58537 1.15902 9.99956 1.00183 10.4224L1.45602 11.8204H3.13239L1.77614 12.8057L2.2942 14.4L0.938016 13.4147L0.125641 14.0049C0.0443281 14.6586 0.00195312 15.3243 0.00195312 16H16.002C16.002 7.1635 16.002 6.12175 16.002 0C12.8412 0 9.89477 0.916875 7.41345 2.49863ZM8.03333 14.4L6.67714 13.4147L5.32095 14.4L5.83902 12.8057L4.48277 11.8204H6.15914L6.67714 10.2261L7.19514 11.8204H8.87152L7.51527 12.8057L8.03333 14.4ZM7.51527 8.14481L8.03333 9.73913L6.67714 8.75381L5.32095 9.73913L5.83902 8.14481L4.48277 7.1595H6.15914L6.67714 5.56519L7.19514 7.1595H8.87152L7.51527 8.14481ZM13.7725 14.4L12.4163 13.4147L11.0601 14.4L11.5781 12.8057L10.2219 11.8204H11.8983L12.4163 10.2261L12.9343 11.8204H14.6106L13.2544 12.8057L13.7725 14.4ZM13.2544 8.14481L13.7725 9.73913L12.4163 8.75381L11.0601 9.73913L11.5781 8.14481L10.2219 7.1595H11.8983L12.4163 5.56519L12.9343 7.1595H14.6106L13.2544 8.14481ZM13.2544 3.48394L13.7725 5.07825L12.4163 4.09294L11.0601 5.07825L11.5781 3.48394L10.2219 2.49863H11.8983L12.4163 0.904312L12.9343 2.49863H14.6106L13.2544 3.48394Z" fill="#0052B4"/>
</g>
<defs>
<clipPath id="clip0_0_87">
<rect width="32" height="32" fill="white"/>
</clipPath>
</defs>
</svg>
