<svg preserveAspectRatio="none" overflow="visible" style="display: block;" width="72.4041" height="64.2542" viewBox="0 0 72.4041 64.2542" fill="none" xmlns="http://www.w3.org/2000/svg">
<g id="Group 1597880581">
<path id="Path" d="M50.4222 47.0645L55.8014 26.2953C56.2247 24.6639 55.9662 22.9161 55.0832 21.4376C54.2002 19.9591 52.7651 18.8715 51.0947 18.4148L19.6152 9.72413C17.946 9.2631 16.1769 9.47024 14.6985 10.2998C13.2201 11.1294 12.1538 12.5132 11.7351 14.1459L6.94654 32.583C6.06637 35.9823 8.16324 39.5173 11.6374 40.491L17.9308 42.2204" stroke="#FFD300" stroke-width="3.03949" stroke-linecap="round" stroke-linejoin="round"/>
<rect id="Rectangle 34624484" x="14.563" y="60.5718" width="40.5265" height="56.7371" rx="8.72878" transform="rotate(-90 14.563 60.5718)" fill="#5D3EBC"/>
<g id="Rectangle 34624485" filter="url(#filter0_di_0_7)">
<rect x="18.6156" y="56.5192" width="32.4212" height="48.6318" rx="6.54659" transform="rotate(-90 18.6156 56.5192)" fill="url(#paint0_linear_0_7)"/>
</g>
<path id="Rectangle 34624487" d="M22.2896 48.1021C22.2896 50.5125 24.2436 52.4665 26.654 52.4665L58.4517 52.4665C60.8621 52.4665 62.8161 50.5125 62.8161 48.1021L62.8161 42.3349L22.2896 42.3349L22.2896 48.1021Z" fill="url(#paint1_linear_0_7)" fill-opacity="0.2"/>
<g id="Group 427326772" filter="url(#filter1_d_0_7)">
<path id="Vector 1834" d="M61.1683 50.442L61.1683 48.4157" stroke="white" stroke-width="3.03949" stroke-linecap="round"/>
<path id="Vector 1837" d="M61.1683 42.3367L61.1683 40.3104" stroke="white" stroke-width="3.03949" stroke-linecap="round"/>
<path id="Vector 1835" d="M53.063 50.442L53.063 30.8023" stroke="white" stroke-width="3.03949" stroke-linecap="round"/>
</g>
</g>
<defs>
<filter id="filter0_di_0_7" x="13.4589" y="21.5196" width="58.9452" height="42.7346" filterUnits="userSpaceOnUse" color-interpolation-filters="sRGB">
<feFlood flood-opacity="0" result="BackgroundImageFix"/>
<feColorMatrix in="SourceAlpha" type="matrix" values="0 0 0 0 0 0 0 0 0 0 0 0 0 0 0 0 0 0 127 0" result="hardAlpha"/>
<feOffset dy="2.57835"/>
<feGaussianBlur stdDeviation="2.57835"/>
<feComposite in2="hardAlpha" operator="out"/>
<feColorMatrix type="matrix" values="0 0 0 0 0 0 0 0 0 0 0 0 0 0 0 0 0 0 0.25 0"/>
<feBlend mode="normal" in2="BackgroundImageFix" result="effect1_dropShadow_0_7"/>
<feBlend mode="normal" in="SourceGraphic" in2="effect1_dropShadow_0_7" result="shape"/>
<feColorMatrix in="SourceAlpha" type="matrix" values="0 0 0 0 0 0 0 0 0 0 0 0 0 0 0 0 0 0 127 0" result="hardAlpha"/>
<feOffset dx="-0.773504" dy="0.773504"/>
<feGaussianBlur stdDeviation="0.644587"/>
<feComposite in2="hardAlpha" operator="arithmetic" k2="-1" k3="1"/>
<feColorMatrix type="matrix" values="0 0 0 0 1 0 0 0 0 1 0 0 0 0 1 0 0 0 0.25 0"/>
<feBlend mode="normal" in2="shape" result="effect2_innerShadow_0_7"/>
</filter>
<filter id="filter1_d_0_7" x="50.5301" y="29.2825" width="13.1711" height="24.7056" filterUnits="userSpaceOnUse" color-interpolation-filters="sRGB">
<feFlood flood-opacity="0" result="BackgroundImageFix"/>
<feColorMatrix in="SourceAlpha" type="matrix" values="0 0 0 0 0 0 0 0 0 0 0 0 0 0 0 0 0 0 127 0" result="hardAlpha"/>
<feOffset dy="1.01316"/>
<feGaussianBlur stdDeviation="0.506581"/>
<feComposite in2="hardAlpha" operator="out"/>
<feColorMatrix type="matrix" values="0 0 0 0 0 0 0 0 0 0 0 0 0 0 0 0 0 0 0.15 0"/>
<feBlend mode="normal" in2="BackgroundImageFix" result="effect1_dropShadow_0_7"/>
<feBlend mode="normal" in="SourceGraphic" in2="effect1_dropShadow_0_7" result="shape"/>
</filter>
<linearGradient id="paint0_linear_0_7" x1="58.5186" y1="30.8524" x2="10.9593" y2="50.4862" gradientUnits="userSpaceOnUse">
<stop stop-color="#C8BEE7"/>
<stop offset="1" stop-color="#5D3EBC"/>
</linearGradient>
<linearGradient id="paint1_linear_0_7" x1="22.2896" y1="47.4007" x2="52.6845" y2="47.4007" gradientUnits="userSpaceOnUse">
<stop stop-color="white"/>
<stop offset="1" stop-color="white" stop-opacity="0"/>
</linearGradient>
</defs>
</svg>
