<!-- sanal kart list, item 2 "her kartın için limitini belirle". Owner-supplied
     2026-08-10. White, for the DARK .dpc-sanal__row. Figma's display-p3 `style`
     attributes stripped for the same reason as cards-multi.svg.
     Created by Claude — PUBLIC (ships as a web asset on the public site).
-->
<svg width="32" height="32" viewBox="0 0 32 32" fill="none" xmlns="http://www.w3.org/2000/svg">
  <path d="M16 7C20.9706 7 25 11.0294 25 16C25 20.9706 20.9706 25 16 25C11.0294 25 7 20.9706 7 16C7 11.0294 11.0294 7 16 7ZM12.7695 11.3555C12.379 10.9649 11.746 10.9649 11.3555 11.3555C10.9649 11.746 10.9649 12.379 11.3555 12.7695L13.543 14.957C13.5538 14.9679 13.566 14.9771 13.5771 14.9873C13.4468 15.2989 13.375 15.6411 13.375 16C13.375 17.4497 14.5503 18.625 16 18.625C17.4497 18.625 18.625 17.4497 18.625 16C18.625 14.5503 17.4497 13.375 16 13.375C15.6411 13.375 15.2989 13.4468 14.9873 13.5771C14.9771 13.566 14.9679 13.5538 14.957 13.543L12.7695 11.3555ZM16 15.375C16.3452 15.375 16.625 15.6548 16.625 16C16.625 16.3452 16.3452 16.625 16 16.625C15.6548 16.625 15.375 16.3452 15.375 16C15.375 15.6548 15.6548 15.375 16 15.375ZM16 9C15.5168 9 15.125 9.39175 15.125 9.875C15.125 10.3582 15.5168 10.75 16 10.75C16.4832 10.75 16.875 10.3582 16.875 9.875C16.875 9.39175 16.4832 9 16 9Z" fill="#fff"/>
</svg>
