<svg xmlns="http://www.w3.org/2000/svg" width="32" height="32" fill="none" viewBox="0 0 32 32"><circle cx="16" cy="16" r="10" fill="#5d3ebc"/><mask id="a" width="20" height="20" x="6" y="6" maskUnits="userSpaceOnUse" style="mask-type:alpha"><circle cx="16" cy="16" r="10" fill="#5d3ebc"/></mask><g mask="url(#a)"><path fill="#fff" d="M16 4.5a11.5 11.5 0 0 1 10.313 6.411A11.45 11.45 0 0 1 27.5 16a11.45 11.45 0 0 1-1.215 5.142 11.53 11.53 0 0 1-6.487 5.713 11.5 11.5 0 0 1-5.046.576h-.002a.3.3 0 0 1-.059-.008C8.956 26.773 4.5 21.909 4.5 16q.001-.633.07-1.248l-.002-.002q.001-.03.01-.059A11.5 11.5 0 0 1 16 4.5m-5.25 1.832A11 11 0 0 0 5.104 14.5H7.25A2.75 2.75 0 0 1 10 17.25v1.25a2.25 2.25 0 0 0 2.25 2.25A2.75 2.75 0 0 1 15 23.5v3.452q.495.046 1 .048c1.224 0 2.4-.203 3.5-.572V23.5a2.75 2.75 0 0 1 2.75-2.75h3.674A10.96 10.96 0 0 0 27 16c0-1.701-.387-3.312-1.076-4.75H24.75a2.25 2.25 0 0 0-2.25 2.25 2.75 2.75 0 1 1-5.5 0 2.25 2.25 0 0 0-2.25-2.25h-.625a3.375 3.375 0 0 1-3.375-3.375zM5.047 15Q5 15.495 5 16c0 5.566 4.135 10.163 9.5 10.895V23.5a2.25 2.25 0 0 0-2.25-2.25A2.75 2.75 0 0 1 9.5 18.5v-1.25A2.25 2.25 0 0 0 7.25 15zm17.203 6.25A2.25 2.25 0 0 0 20 23.5v2.746a11.04 11.04 0 0 0 5.668-4.996zM16 5c-1.701 0-3.312.387-4.75 1.076v1.799a2.875 2.875 0 0 0 2.875 2.875h.625a2.75 2.75 0 0 1 2.75 2.75 2.25 2.25 0 0 0 4.5 0 2.75 2.75 0 0 1 2.75-2.75h.918A11 11 0 0 0 16 5"/></g></svg>