<svg width="167" height="32" viewBox="0 0 167 32" fill="none" xmlns="http://www.w3.org/2000/svg">
<path d="M34.697 12.3297C34.697 8.68523 31.7014 6.2884 27.3408 6.2884C22.9802 6.2884 18.8541 9.26685 18.8541 15.907C18.8541 20.9821 21.9155 24.7267 27.2251 24.7267C30.2035 24.7267 33.4822 23.0287 34.314 21.8639C34.314 21.8639 33.748 19.6844 32.2001 19.6844C31.384 19.6844 30.7851 20.0002 30.1207 20.2832C29.4218 20.5662 28.6056 20.8164 27.5409 20.8164C26.0603 20.8164 23.5133 20.2176 23.5133 17.039C23.5133 17.039 24.711 17.3892 27.4408 17.3892C33.282 17.372 34.697 14.9095 34.697 12.3297ZM27.5237 10.2503C29.5375 10.2503 30.5022 11.3494 30.5022 12.3469C30.5022 13.5289 29.4374 14.2935 27.5065 14.2935C24.711 14.2935 23.6462 13.8948 23.6462 13.8948C23.6462 12.1968 24.9783 10.2503 27.5237 10.2503Z" fill="#5D3EBC" style="fill:#5D3EBC;fill:color(display-p3 0.3650 0.2430 0.7370);fill-opacity:1;"/>
<path d="M45.5977 20.8335C43.5839 20.8335 42.5364 19.1356 42.3519 18.4039C42.1517 17.6722 42.0189 16.6403 42.0189 15.5755L42.0517 10.1174H43.5167C44.6987 10.1174 45.6133 9.76715 46.2465 9.08546C46.8954 8.38658 47.2112 7.47194 47.2112 6.30557H42.0517L42.0189 3.87591C42.0189 3.1098 42.0189 2.47814 42.0361 2.01222C42.0533 1.5291 42.0689 1.16325 42.0861 0.880254C42.1033 0.580064 42.1361 0.331468 42.169 0.14854C40.6039 0.14854 39.4063 0.481564 38.5917 1.14761C37.7755 1.81366 37.3596 2.91123 37.3596 4.45909L37.3268 16.5746C37.3268 21.534 39.6892 24.7782 44.1999 24.7782C46.4295 24.7782 48.0602 23.5806 48.0602 21.7654C48.0602 21.1165 47.9773 20.7835 47.9101 20.5834C47.527 20.6663 46.7953 20.8335 45.5961 20.8335H45.5977Z" fill="#5D3EBC" style="fill:#5D3EBC;fill:color(display-p3 0.3650 0.2430 0.7370);fill-opacity:1;"/>
<path d="M56.9142 21.0665C55.9152 21.0665 55.2663 20.3348 55.2663 19.1528V10.416C55.2663 9.64988 55.2663 9.01823 55.2835 8.55231C55.3007 8.06919 55.3163 7.70334 55.3335 7.42034C55.3664 7.12015 55.3836 6.87156 55.4164 6.68863C53.8185 6.68863 52.6209 7.02165 51.8047 7.6877C50.9886 8.35375 50.5727 9.45132 50.5727 10.9992L50.5399 19.9033C50.5399 23.0818 52.5865 24.8455 55.1663 24.7454C56.797 24.6782 58.1947 23.9136 58.1947 22.1985C58.1947 21.4824 58.0775 20.9164 58.0775 20.9164C57.6944 20.9993 57.4286 21.0665 56.9127 21.0665H56.9142Z" fill="#5D3EBC" style="fill:#5D3EBC;fill:color(display-p3 0.3650 0.2430 0.7370);fill-opacity:1;"/>
<path d="M51.7219 4.94064C52.0877 5.12357 52.488 5.22363 52.9039 5.22363C53.8686 5.22363 54.6347 4.75771 55.2007 3.84306C55.4336 3.42718 55.5509 2.97845 55.5509 2.49533C55.5509 2.04661 55.4508 1.63072 55.2351 1.23047C55.0193 0.831778 54.7019 0.531588 54.286 0.315826C53.9202 0.100064 53.5371 0 53.1384 0C52.6897 0 52.2566 0.132897 51.8407 0.383056C51.4248 0.633215 51.0918 0.981873 50.8588 1.43216C50.6259 1.83085 50.5086 2.28114 50.5086 2.77989C50.5086 3.22861 50.6087 3.6445 50.8244 4.02756C51.0246 4.39341 51.3232 4.70924 51.7235 4.9422L51.7219 4.94064Z" fill="#5D3EBC" style="fill:#5D3EBC;fill:color(display-p3 0.3650 0.2430 0.7370);fill-opacity:1;"/>
<path d="M68.481 6.72147C67.4991 6.72147 66.5172 6.83873 65.5353 7.05449C64.5535 7.27025 63.6545 7.68614 62.8555 8.30216C62.0566 8.91817 61.4077 9.76715 60.909 10.8647C60.4102 11.9639 60.1601 13.3616 60.1601 15.0752V20.0846C60.1601 21.6325 60.3602 23.0631 61.292 23.762C62.3067 24.5281 63.4887 24.5609 65.0538 24.5609C65.021 24.4108 65.0038 23.9621 64.9709 23.6619C64.9381 23.3789 64.9209 22.9959 64.9209 22.5299C64.9037 22.0468 64.9037 21.4308 64.9037 20.6663V14.2419C64.9037 12.7268 65.1539 10.7803 67.8165 10.5645C69.3143 10.4316 70.6448 9.86565 70.6448 8.23493C70.6448 7.85187 70.562 7.13579 70.379 6.7199H68.4825L68.481 6.72147Z" fill="#5D3EBC" style="fill:#5D3EBC;fill:color(display-p3 0.3650 0.2430 0.7370);fill-opacity:1;"/>
<path d="M8.3209 6.2884C2.86275 6.2884 0 10.1158 0 14.775C0 19.0856 2.62979 23.1131 7.40626 23.1131C9.88596 23.1131 11.3166 22.064 11.684 21.7482V23.9121C11.684 26.3918 10.7193 28.0397 8.2224 28.0397C7.02477 28.0397 6.12576 27.7067 5.29398 27.3236C4.56227 26.9734 4.01192 26.5575 3.28021 26.5575C1.41652 26.5575 0.900572 28.8543 0.91777 28.8715C2.31553 30.6695 5.51131 32 8.18957 32C13.4648 32 16.3776 28.9215 16.3776 22.8145V15.6756C16.3604 10.1002 13.8979 6.28996 8.32247 6.28996L8.3209 6.2884ZM8.28807 18.9855C6.24146 18.9855 4.6764 17.6878 4.6764 14.8423C4.6764 11.8138 6.27429 10.2331 8.28807 10.2331C10.3018 10.2331 11.7168 11.4307 11.7168 14.6093C11.7168 17.7879 10.1518 18.9855 8.28807 18.9855Z" fill="#5D3EBC" style="fill:#5D3EBC;fill:color(display-p3 0.3650 0.2430 0.7370);fill-opacity:1;"/>
<path d="M83.9001 4.60295H83.7672C83.4139 4.49194 83.0324 4.39813 82.6227 4.32152C82.2131 4.24491 81.7315 4.20582 81.1796 4.20582C80.7153 4.20582 80.2884 4.2496 79.9023 4.33872C79.5145 4.42784 79.183 4.58731 78.9063 4.82027C78.6296 5.05323 78.4091 5.3628 78.2418 5.74899C78.0761 6.13673 77.9932 6.62767 77.9932 7.22649V8.81968H83.1043V10.047C83.1043 10.4457 83.0105 10.7991 82.8229 11.1086C82.6353 11.4182 82.3851 11.684 82.0755 11.9045C81.7659 12.1265 81.422 12.2922 81.0467 12.4016C80.6699 12.5127 80.2947 12.5674 79.9179 12.5674H77.9932V24.514H76.2015C75.4932 24.514 74.8678 24.2654 74.3268 23.7667C73.7843 23.2695 73.5138 22.6331 73.5138 21.8592V6.85907C73.5138 6.21803 73.6295 5.51446 73.8625 4.75148C74.0939 3.98849 74.4879 3.27398 75.0398 2.61106C75.5933 1.94657 76.3125 1.39466 77.1974 0.952191C78.0824 0.509723 79.1768 0.287707 80.4823 0.287707C81.4564 0.287707 82.2694 0.536303 82.9214 1.03506C83.5733 1.53225 83.9001 2.22487 83.9001 3.10981V4.60295Z" fill="#5D3EBC" style="fill:#5D3EBC;fill:color(display-p3 0.3650 0.2430 0.7370);fill-opacity:1;"/>
<path d="M130.441 18.407C130.441 19.3576 130.275 20.2269 129.943 21.0118C129.612 21.7967 129.148 22.4721 128.55 23.0365C127.953 23.6009 127.24 24.0371 126.41 24.3467C125.58 24.6563 124.668 24.8111 123.672 24.8111H122.776C121.715 24.8111 120.747 24.6672 119.873 24.3796C118.999 24.0919 118.247 23.6994 117.617 23.2022C116.987 22.7051 116.494 22.1078 116.139 21.4105C115.786 20.7132 115.608 19.9564 115.608 19.1372C115.608 18.3179 115.763 17.6003 116.072 16.9139C116.382 16.2291 116.885 15.6365 117.582 15.1378C118.28 14.6406 119.198 14.2481 120.337 13.9589C121.477 13.6712 122.865 13.5274 124.502 13.5274H126.063V13.2944C126.063 12.0327 125.753 11.1712 125.134 10.7052C124.515 10.2409 123.541 10.0079 122.213 10.0079C121.418 10.0079 120.703 10.0736 120.073 10.2065C119.443 10.3394 118.896 10.5114 118.43 10.7209C117.965 10.932 117.578 11.1587 117.268 11.401C116.959 11.6449 116.715 11.8654 116.538 12.0655H116.372V10.638C116.372 10.1299 116.488 9.62019 116.721 9.11205C116.954 8.60392 117.329 8.1333 117.85 7.70178C118.369 7.27026 119.044 6.9216 119.875 6.6558C120.705 6.39001 121.705 6.25711 122.878 6.25711C123.874 6.25711 124.831 6.38532 125.749 6.63861C126.666 6.89346 127.475 7.32967 128.17 7.94881C128.868 8.56796 129.42 9.39192 129.829 10.4207C130.239 11.4495 130.444 12.7378 130.444 14.2872V18.4023L130.441 18.407ZM126.093 18.4398V16.7138H124.499C123.658 16.7138 122.956 16.7638 122.392 16.8638C121.827 16.9639 121.38 17.1078 121.047 17.2954C120.716 17.483 120.483 17.7159 120.35 17.9927C120.217 18.2694 120.151 18.5962 120.151 18.9714C120.151 19.6797 120.417 20.2269 120.947 20.6147C121.479 21.0024 122.242 21.1947 123.236 21.1947C125.139 21.1947 126.089 20.2769 126.089 18.4398H126.093Z" fill="#5D3EBC" style="fill:#5D3EBC;fill:color(display-p3 0.3650 0.2430 0.7370);fill-opacity:1;"/>
<path d="M149.722 24.514H148.527C147.531 24.514 146.74 24.2373 146.154 23.6838C145.567 23.1303 145.275 22.4346 145.275 21.5934V14.492C145.275 12.9661 144.959 11.8591 144.329 11.1727C143.699 10.4879 142.808 10.144 141.657 10.144C140.683 10.144 139.898 10.4926 139.301 11.1899C138.704 11.8872 138.405 12.8769 138.405 14.1606V24.514H137.078C136.125 24.514 135.369 24.2373 134.804 23.6838C134.24 23.1303 133.958 22.4346 133.958 21.5934V13.8604C133.958 12.9098 134.119 11.9748 134.44 11.0555C134.76 10.1377 135.247 9.31843 135.9 8.59922C136.552 7.88002 137.387 7.29996 138.405 6.85749C139.423 6.41502 140.628 6.19301 142.023 6.19301C143.085 6.19301 144.08 6.36499 145.009 6.7074C145.938 7.05136 146.751 7.5595 147.448 8.23336C148.146 8.90879 148.697 9.73744 149.107 10.7224C149.517 11.7074 149.722 12.83 149.722 14.0902V24.514Z" fill="#5D3EBC" style="fill:#5D3EBC;fill:color(display-p3 0.3650 0.2430 0.7370);fill-opacity:1;"/>
<path d="M112.267 24.514H111.072C110.076 24.514 109.285 24.2373 108.699 23.6838C108.112 23.1303 107.82 22.4346 107.82 21.5934V14.492C107.82 12.9661 107.504 11.8591 106.874 11.1727C106.244 10.4879 105.353 10.144 104.202 10.144C103.228 10.144 102.443 10.4926 101.846 11.1899C101.249 11.8872 100.95 12.8769 100.95 14.1606V24.514H99.6226C98.6704 24.514 97.9137 24.2373 97.3493 23.6838C96.7848 23.1303 96.5034 22.4346 96.5034 21.5934V13.8604C96.5034 12.9098 96.6645 11.9748 96.985 11.0555C97.3055 10.1377 97.7917 9.31843 98.4453 8.59922C99.0973 7.88002 99.9322 7.29996 100.95 6.85749C101.968 6.41502 103.173 6.19301 104.568 6.19301C105.63 6.19301 106.625 6.36499 107.554 6.7074C108.483 7.05136 109.296 7.5595 109.993 8.23336C110.691 8.90879 111.242 9.73744 111.652 10.7224C112.062 11.7074 112.267 12.83 112.267 14.0902V24.514Z" fill="#5D3EBC" style="fill:#5D3EBC;fill:color(display-p3 0.3650 0.2430 0.7370);fill-opacity:1;"/>
<path d="M92.4884 21.0665C91.4893 21.0665 90.8404 20.3348 90.8404 19.1528V10.416C90.8404 9.64989 90.8404 9.01823 90.8576 8.55231C90.8748 8.06919 90.8905 7.70334 90.9077 7.42035C90.9405 7.12016 90.9577 6.87156 90.9905 6.68863C89.3927 6.68863 88.195 7.02166 87.3789 7.6877C86.5627 8.35375 86.1468 9.45132 86.1468 10.9992L86.114 19.9033C86.114 23.0818 88.1606 24.8455 90.7404 24.7454C92.3711 24.6782 93.7689 23.9136 93.7689 22.1985C93.7689 21.4824 93.6516 20.9164 93.6516 20.9164C93.2685 20.9993 93.0028 21.0665 92.4868 21.0665H92.4884Z" fill="#5D3EBC" style="fill:#5D3EBC;fill:color(display-p3 0.3650 0.2430 0.7370);fill-opacity:1;"/>
<path d="M87.296 4.94064C87.6619 5.12357 88.0621 5.22363 88.478 5.22363C89.4427 5.22363 90.2088 4.75771 90.7748 3.84307C91.0077 3.42718 91.125 2.97846 91.125 2.49534C91.125 2.04661 91.0249 1.63072 90.8092 1.23047C90.5934 0.83178 90.276 0.531589 89.8601 0.315827C89.4943 0.100065 89.1112 1.58494e-06 88.7125 1.58494e-06C88.2638 1.58494e-06 87.8307 0.132899 87.4148 0.383057C86.999 0.633216 86.6659 0.981875 86.433 1.43216C86.2 1.83085 86.0827 2.28114 86.0827 2.77989C86.0827 3.22861 86.1828 3.6445 86.3986 4.02756C86.5987 4.39342 86.8973 4.70924 87.2976 4.9422L87.296 4.94064Z" fill="#5D3EBC" style="fill:#5D3EBC;fill:color(display-p3 0.3650 0.2430 0.7370);fill-opacity:1;"/>
<path d="M166.678 18.8714C166.678 20.7741 166.035 22.2563 164.753 23.3179C163.469 24.3796 161.623 24.9111 159.21 24.9111C158.391 24.9111 157.634 24.8111 156.937 24.6125C156.24 24.4139 155.632 24.1544 155.112 23.8323C154.592 23.5118 154.188 23.1413 153.901 22.7207C153.613 22.3001 153.469 21.8576 153.469 21.3933V19.3686H153.635C153.877 19.5906 154.193 19.8063 154.581 20.0158C154.967 20.2269 155.405 20.4083 155.891 20.5631C156.377 20.7179 156.887 20.8398 157.417 20.9274C157.949 21.0165 158.479 21.0603 159.01 21.0603C161.179 21.0603 162.262 20.4083 162.262 19.1028C162.262 18.837 162.212 18.6103 162.112 18.4226C162.012 18.235 161.831 18.063 161.565 17.9083C161.299 17.7535 160.922 17.6159 160.436 17.4939C159.95 17.372 159.318 17.2563 158.544 17.1453C156.642 16.8795 155.231 16.3651 154.314 15.6021C153.396 14.8391 152.936 13.7713 152.936 12.4001C152.936 11.5589 153.119 10.7631 153.483 10.0111C153.848 9.25902 154.362 8.60079 155.026 8.03637C155.689 7.47194 156.487 7.02479 157.415 6.69176C158.344 6.3603 159.384 6.19457 160.535 6.19457C161.552 6.19457 162.42 6.31027 163.139 6.54323C163.859 6.77619 164.45 7.07951 164.916 7.45631C165.38 7.83311 165.718 8.24118 165.927 8.68365C166.137 9.12612 166.243 9.56859 166.243 10.0111V11.7028H166.077C165.613 11.2384 164.911 10.846 163.97 10.5239C163.028 10.2034 162.028 10.0423 160.966 10.0423C159.593 10.0423 158.654 10.2299 158.146 10.6067C157.636 10.9835 157.383 11.4589 157.383 12.0342C157.383 12.2562 157.426 12.4485 157.516 12.6143C157.605 12.78 157.775 12.9301 158.03 13.063C158.285 13.1959 158.649 13.3178 159.126 13.4273C159.601 13.5383 160.216 13.6602 160.968 13.7916C162.849 14.1012 164.27 14.6656 165.231 15.4833C166.194 16.3025 166.674 17.4298 166.674 18.8682L166.678 18.8714Z" fill="#5D3EBC" style="fill:#5D3EBC;fill:color(display-p3 0.3650 0.2430 0.7370);fill-opacity:1;"/>
</svg>
