<svg width="160" height="32" viewBox="0 0 160 32" fill="none" xmlns="http://www.w3.org/2000/svg">
<path d="M0 7.11111C0 3.18375 3.18375 0 7.11111 0H152.889C156.816 0 160 3.18375 160 7.11111V24.8889C160 28.8162 156.816 32 152.889 32H7.11111C3.18375 32 0 28.8162 0 24.8889V7.11111Z" fill="#FFD300" style="fill:#FFD300;fill:color(display-p3 1.0000 0.8275 0.0000);fill-opacity:1;"/>
<path d="M98.6377 12.0357C99.427 12.0357 100.152 12.5475 100.302 13.3795C100.707 15.5981 101.56 17.9662 102.605 20.0142C103.48 18.0729 104.632 14.1904 104.846 12.0357H106.083C107 12.0357 107.427 12.4409 107.427 13.3795C107.427 13.5715 107.384 13.8706 107.277 14.2759C107.085 15.0865 106.766 16.1103 106.36 17.2193C106.168 17.774 105.976 18.3077 105.784 18.7984C105.486 19.6302 105.059 20.6751 104.889 21.0806C103.843 23.5766 103.011 25.1555 102.2 26.0728C101.39 26.9901 100.579 27.2886 99.5547 27.2886C98.4668 27.2885 97.5498 26.606 97.5498 25.5181V24.9634L99.1709 24.857C100.323 24.793 100.621 24.2167 101.197 22.7447C99.6826 20.5045 97.5071 14.681 97.123 12.0357H98.6377Z" fill="#5D3EBC" style="fill:#5D3EBC;fill:color(display-p3 0.3647 0.2431 0.7373);fill-opacity:1;"/>
<path fill-rule="evenodd" clip-rule="evenodd" d="M28.7021 11.7799C31.7315 11.7799 33.9287 14.5107 33.9287 17.4547C33.9286 21.1451 32.1156 23.8111 28.7451 23.8111C27.4652 23.8111 26.4198 23.1076 25.8438 22.105V27.1822H24.9473C23.8808 27.182 22.9424 26.371 22.9424 25.1978V18.2437C22.9424 16.3452 23.3691 14.7025 24.3076 13.5718C25.2462 12.4412 26.6756 11.7799 28.7021 11.7799ZM28.2539 14.3179C26.6542 14.3182 25.8008 15.6837 25.8008 17.6675C25.8008 19.9715 26.932 21.273 28.6387 21.273C30.0252 21.2728 30.9854 20.0566 30.9854 18.2008C30.9853 15.4702 30.1099 14.3179 28.2539 14.3179Z" fill="#5D3EBC" style="fill:#5D3EBC;fill:color(display-p3 0.3647 0.2431 0.7373);fill-opacity:1;"/>
<path fill-rule="evenodd" clip-rule="evenodd" d="M117.258 8.19587C118.367 8.19591 119.135 8.81418 119.135 10.1793V13.5289C119.732 12.6115 120.821 11.7799 122.25 11.7799C125.237 11.78 127.412 14.2545 127.412 17.5611C127.412 21.0382 125.151 23.811 121.695 23.8111C118.687 23.8111 116.276 21.3156 116.276 17.9449V8.19587H117.258ZM121.695 14.3179C120.202 14.3179 119.156 15.8116 119.156 17.5396C119.156 20.1849 120.287 21.273 121.994 21.273C123.487 21.2727 124.447 19.8218 124.447 18.0513C124.447 15.257 123.466 14.318 121.695 14.3179Z" fill="#5D3EBC" style="fill:#5D3EBC;fill:color(display-p3 0.3647 0.2431 0.7373);fill-opacity:1;"/>
<path fill-rule="evenodd" clip-rule="evenodd" d="M40.3311 11.8218C43.2111 11.8218 45.1953 13.2729 45.1953 16.9849V19.6304C45.1952 22.0837 43.3814 23.7476 40.8428 23.7476H40.2676C37.6649 23.7476 35.6592 22.2752 35.6592 20.0992C35.6593 19.0753 36.0436 18.1581 36.9395 17.5181C37.8355 16.8782 39.2651 16.4947 41.377 16.4947H42.3789V16.3453C42.3789 14.7239 41.611 14.233 39.9043 14.233C38.0914 14.233 36.8756 14.8514 36.2568 15.5552H36.1494V14.6383C36.1494 13.0596 37.6645 11.8219 40.3311 11.8218ZM41.377 18.5425C39.4784 18.5425 38.5821 18.9049 38.582 19.9927C38.582 20.91 39.2857 21.4223 40.5654 21.4224C41.7813 21.4224 42.4003 20.825 42.4004 19.6519V18.5425H41.377Z" fill="#5D3EBC" style="fill:#5D3EBC;fill:color(display-p3 0.3647 0.2431 0.7373);fill-opacity:1;"/>
<path fill-rule="evenodd" clip-rule="evenodd" d="M59.8525 11.8218C62.7325 11.8218 64.7168 13.2729 64.7168 16.9849V19.6304C64.7167 22.0837 62.9029 23.7476 60.3643 23.7476H59.7891C57.1864 23.7476 55.1807 22.2752 55.1807 20.0992C55.1808 19.0753 55.565 18.1581 56.4609 17.5181C57.357 16.8782 58.7866 16.4947 60.8984 16.4947H61.9004V16.3453C61.9004 14.7239 61.1324 14.233 59.4258 14.233C57.6129 14.233 56.3971 14.8514 55.7783 15.5552H55.6709V14.6383C55.6709 13.0596 57.186 11.8219 59.8525 11.8218ZM60.8984 18.5425C58.9999 18.5425 58.1036 18.9049 58.1035 19.9927C58.1035 20.91 58.8072 21.4223 60.0869 21.4224C61.3028 21.4224 61.9217 20.825 61.9219 19.6519V18.5425H60.8984Z" fill="#5D3EBC" style="fill:#5D3EBC;fill:color(display-p3 0.3647 0.2431 0.7373);fill-opacity:1;"/>
<path fill-rule="evenodd" clip-rule="evenodd" d="M84.0605 11.8218C86.9405 11.8218 88.9248 13.2729 88.9248 16.9849V19.6304C88.9247 22.0837 87.1109 23.7476 84.5723 23.7476H83.9971C81.3944 23.7476 79.3887 22.2752 79.3887 20.0992C79.3888 19.0753 79.7731 18.1581 80.6689 17.5181C81.565 16.8782 82.9946 16.4947 85.1064 16.4947H86.1084V16.3453C86.1084 14.7239 85.3405 14.233 83.6338 14.233C81.8209 14.233 80.6051 14.8514 79.9863 15.5552H79.8789V14.6383C79.8789 13.0596 81.394 11.8219 84.0605 11.8218ZM85.1064 18.5425C83.2079 18.5425 82.3116 18.9049 82.3115 19.9927C82.3115 20.91 83.0152 21.4223 84.2949 21.4224C85.5108 21.4224 86.1298 20.825 86.1299 19.6519V18.5425H85.1064Z" fill="#5D3EBC" style="fill:#5D3EBC;fill:color(display-p3 0.3647 0.2431 0.7373);fill-opacity:1;"/>
<path fill-rule="evenodd" clip-rule="evenodd" d="M133.853 11.8218C136.733 11.8218 138.717 13.2729 138.717 16.9849V19.6304C138.717 22.0837 136.903 23.7476 134.364 23.7476H133.789C131.186 23.7476 129.181 22.2752 129.181 20.0992C129.181 19.0753 129.565 18.1581 130.461 17.5181C131.357 16.8782 132.787 16.4947 134.898 16.4947H135.9V16.3453C135.9 14.7239 135.132 14.233 133.426 14.233C131.613 14.233 130.397 14.8514 129.778 15.5552H129.671V14.6383C129.671 13.0596 131.186 11.8219 133.853 11.8218ZM134.898 18.5425C133 18.5425 132.104 18.9049 132.104 19.9927C132.104 20.91 132.807 21.4223 134.087 21.4224C135.303 21.4224 135.922 20.825 135.922 19.6519V18.5425H134.898Z" fill="#5D3EBC" style="fill:#5D3EBC;fill:color(display-p3 0.3647 0.2431 0.7373);fill-opacity:1;"/>
<path d="M92.3652 12.2916C93.6452 12.2916 94.4131 12.9747 94.4131 14.4254V19.8013C94.4132 20.9743 94.8832 21.316 96.1631 21.316H96.6963V21.9341C96.6963 23.1928 96.2053 23.6627 94.9893 23.6627C92.7709 23.6626 91.5548 22.4036 91.5547 20.0787V12.2916H92.3652Z" fill="#5D3EBC" style="fill:#5D3EBC;fill:color(display-p3 0.3647 0.2431 0.7373);fill-opacity:1;"/>
<path d="M110.303 12.2916C111.583 12.2916 112.351 12.9747 112.351 14.4254V19.8013C112.351 20.9743 112.821 21.316 114.101 21.316H114.634V21.9341C114.634 23.1928 114.143 23.6627 112.927 23.6627C110.708 23.6626 109.492 22.4036 109.492 20.0787V12.2916H110.303Z" fill="#5D3EBC" style="fill:#5D3EBC;fill:color(display-p3 0.3647 0.2431 0.7373);fill-opacity:1;"/>
<path d="M142.008 8.19587C143.394 8.19587 143.971 8.98497 143.971 10.0943V16.9634C145.08 15.5128 146.147 14.0618 147.491 12.7818C148.174 12.1208 148.856 12.0357 149.773 12.0357H151.416V12.1422C150.541 12.8889 147.811 16.0034 146.744 17.3687C147.661 18.4993 148.557 19.673 149.581 20.7183C150.498 21.6355 151.011 21.9555 151.8 22.2115C151.48 23.1288 151.053 23.6197 149.858 23.6197C149.197 23.6196 148.472 23.3211 147.981 22.8306C146.509 21.2946 145.251 19.6301 143.971 17.9234V23.5338L143.054 23.5552C141.752 23.5766 141.091 22.8942 141.091 21.5289V8.19587H142.008Z" fill="#5D3EBC" style="fill:#5D3EBC;fill:color(display-p3 0.3647 0.2431 0.7373);fill-opacity:1;"/>
<path fill-rule="evenodd" clip-rule="evenodd" d="M13.9424 8.94196C14.8597 8.94196 15.3076 9.36905 15.3076 10.2437C15.3076 10.393 15.287 10.4997 15.2656 10.649L14.8389 12.8677H17.0791L17.8467 8.94196H18.5078C19.3611 8.94196 19.873 9.4115 19.873 10.2008V10.4351C19.873 10.5203 19.8524 10.606 19.8311 10.7125L19.4258 12.8677H21.2178V13.5504C21.2177 14.4249 20.6841 14.937 19.6816 14.9371H19.0195L18.5078 17.5396H20.2783V18.2008C20.2783 19.0754 19.7449 19.609 18.7422 19.609H18.1025L17.335 23.5552H16.46C15.6067 23.5552 15.2871 23.1074 15.2871 22.3394C15.2871 22.1688 15.3079 21.9982 15.3506 21.8062L15.7773 19.609H13.5371L12.7695 23.5552H11.8945C11.0413 23.5552 10.7217 23.1074 10.7217 22.3394C10.7217 22.1475 10.7425 21.9767 10.7852 21.7847L11.2119 19.609H9.29199V18.9263C9.29199 18.0517 9.82546 17.5396 10.8281 17.5396H11.6172L12.1084 14.9371H10.2305V14.2759C10.2305 13.4013 10.764 12.8678 11.7666 12.8677H12.5137L13.2812 8.94196H13.9424ZM13.9424 17.5396H16.1826L16.6943 14.9371H14.4336L13.9424 17.5396Z" fill="#5D3EBC" style="fill:#5D3EBC;fill:color(display-p3 0.3647 0.2431 0.7373);fill-opacity:1;"/>
<path d="M51.708 11.9293C53.2867 11.9293 54.0977 12.7609 54.0977 13.8062V14.8306H53.9912C53.5646 14.66 53.0737 14.4889 52.3271 14.4888C51.0472 14.4888 50.3428 15.1715 50.3428 16.942V23.5552H49.5537C48.2738 23.5552 47.4631 22.9157 47.4629 21.7213V16.4302C47.4629 13.9556 48.8282 11.9294 51.708 11.9293Z" fill="#5D3EBC" style="fill:#5D3EBC;fill:color(display-p3 0.3647 0.2431 0.7373);fill-opacity:1;"/>
<path d="M72.168 11.7799C74.984 11.7799 77.1182 13.6997 77.1182 16.857V23.5552H76.3496C75.0697 23.5552 74.2588 22.7662 74.2588 21.6783V17.1129C74.2588 15.1502 73.4056 14.3179 71.9336 14.3179C70.675 14.318 69.8428 15.2574 69.8428 16.9V23.5552H68.9893C67.7735 23.555 66.9844 22.7661 66.9844 21.6783V16.7076C66.9844 14.0197 68.8189 11.78 72.168 11.7799Z" fill="#5D3EBC" style="fill:#5D3EBC;fill:color(display-p3 0.3647 0.2431 0.7373);fill-opacity:1;"/>
<path d="M92.9629 7.87556C93.8802 7.87559 94.6484 8.6223 94.6484 9.53962C94.6484 10.4569 93.8802 11.2251 92.9629 11.2252C92.0456 11.2252 91.2989 10.4569 91.2988 9.53962C91.2988 8.62228 92.0456 7.87556 92.9629 7.87556Z" fill="#5D3EBC" style="fill:#5D3EBC;fill:color(display-p3 0.3647 0.2431 0.7373);fill-opacity:1;"/>
<path d="M110.9 7.87556C111.818 7.87559 112.586 8.6223 112.586 9.53962C112.586 10.4569 111.818 11.2251 110.9 11.2252C109.983 11.2252 109.236 10.4569 109.236 9.53962C109.236 8.62228 109.983 7.87556 110.9 7.87556Z" fill="#5D3EBC" style="fill:#5D3EBC;fill:color(display-p3 0.3647 0.2431 0.7373);fill-opacity:1;"/>
</svg>
