<svg width="32" height="32" viewBox="0 0 32 32" fill="none" xmlns="http://www.w3.org/2000/svg">
<path d="M0 16C0 7.16344 7.16344 0 16 0C24.8366 0 32 7.16344 32 16C32 24.8366 24.8366 32 16 32C7.16344 32 0 24.8366 0 16Z" fill="#F5F5F5" style="fill:#F5F5F5;fill:color(display-p3 0.9608 0.9608 0.9608);fill-opacity:1;"/>
<g clip-path="url(#clip0_21274_13626)">
<rect x="-0.800781" y="4" width="33.6" height="24" rx="2.4" fill="white" style="fill:white;fill-opacity:1;"/>
<mask id="mask0_21274_13626" style="mask-type:alpha" maskUnits="userSpaceOnUse" x="-1" y="4" width="34" height="24">
<rect x="-0.800781" y="4" width="33.6" height="24" rx="9.6" fill="white" style="fill:white;fill-opacity:1;"/>
</mask>
<g mask="url(#mask0_21274_13626)">
<rect x="-0.800781" y="4" width="33.6" height="24" fill="#B4B4B4" style="fill:#B4B4B4;fill:color(display-p3 0.7059 0.7059 0.7059);fill-opacity:1;"/>
<path d="M6.39883 15.4C4.87363 15.1804 4.59883 13.6 4.59883 13.6C4.59883 13.6 4.32403 15.1804 2.79883 15.4C4.32403 15.6195 4.59883 17.2 4.59883 17.2C4.59883 17.2 4.87363 15.6195 6.39883 15.4Z" fill="white" fill-opacity="0.75" style="fill:white;fill-opacity:0.75;"/>
<path d="M25.5992 16C25.5992 16 25.9656 13.8944 27.9992 13.6C25.9656 13.3072 25.5992 11.2 25.5992 11.2C25.5992 11.2 25.2328 13.3072 23.1992 13.6C25.2328 13.8944 25.5992 16 25.5992 16Z" fill="white" fill-opacity="0.75" style="fill:white;fill-opacity:0.75;"/>
<path d="M7.6 13.6C7.6 13.6 8.1496 10.4417 11.2 10C8.1496 9.56091 7.6 6.40002 7.6 6.40002C7.6 6.40002 7.0504 9.56091 4 10C7.0504 10.4417 7.6 13.6 7.6 13.6Z" fill="white" fill-opacity="0.75" style="fill:white;fill-opacity:0.75;"/>
<path d="M13.3631 10.0001C12.5982 10.0001 11.7988 10.5922 11.5784 11.3268L10.4591 15.0475C10.2387 15.7779 10.6795 16.3742 11.4444 16.3742H15.7701V10.0001H13.3588H13.3631Z" fill="white" style="fill:white;fill-opacity:1;"/>
<path d="M21.0868 15.0475L19.9676 11.3268C19.7472 10.5965 18.9477 10.0001 18.1828 10.0001H15.7715V16.3742H20.0972C20.8621 16.3742 21.3029 15.7822 21.0825 15.0475H21.0868Z" fill="white" fill-opacity="0.75" style="fill:white;fill-opacity:0.75;"/>
<path d="M19.0194 16.3734C18.2545 16.3734 17.455 16.9654 17.2346 17.7001L16.1154 21.4208C15.895 22.1511 16.3358 22.7475 17.1006 22.7475H21.4264V16.3734H19.015H19.0194Z" fill="white" style="fill:white;fill-opacity:1;"/>
<path d="M26.747 21.4208L25.6277 17.7001C25.4073 16.9698 24.6079 16.3734 23.843 16.3734H21.4316V22.7475H25.7574C26.5223 22.7475 26.9631 22.1555 26.7427 21.4208H26.747Z" fill="white" fill-opacity="0.75" style="fill:white;fill-opacity:0.75;"/>
<path d="M8.15998 16.3734C7.39509 16.3734 6.59563 16.9654 6.37523 17.7001L5.25599 21.4208C5.03559 22.1511 5.47638 22.7475 6.24127 22.7475H10.567V16.3734H8.15566H8.15998Z" fill="white" style="fill:white;fill-opacity:1;"/>
<path d="M15.8876 21.4208L14.7684 17.7001C14.548 16.9698 13.7485 16.3734 12.9836 16.3734H10.5723V22.7475H14.898C15.6629 22.7475 16.1037 22.1555 15.8833 21.4208H15.8876Z" fill="white" fill-opacity="0.75" style="fill:white;fill-opacity:0.75;"/>
</g>
</g>
<path d="M16 4.59961C22.296 4.59961 27.4004 9.70395 27.4004 16C27.4004 22.296 22.296 27.4004 16 27.4004C9.70395 27.4004 4.59961 22.296 4.59961 16C4.59961 9.70395 9.70395 4.59961 16 4.59961Z" stroke="white" style="stroke:white;stroke-opacity:1;" stroke-width="1.2"/>
<defs>
<clipPath id="clip0_21274_13626">
<path d="M4 16C4 9.37258 9.37258 4 16 4C22.6274 4 28 9.37258 28 16C28 22.6274 22.6274 28 16 28C9.37258 28 4 22.6274 4 16Z" fill="white" style="fill:white;fill-opacity:1;"/>
</clipPath>
</defs>
</svg>
