<svg width="84" height="65" viewBox="0 0 84 65" fill="none" xmlns="http://www.w3.org/2000/svg">
<path d="M35.4491 26.5199L57.456 30.477C58.5327 30.7645 59.0809 31.8654 58.7607 32.932L52.1416 48.616L47.6975 48.5907L52.6681 35.1374L38.4547 33.957C37.5915 33.8702 36.7646 33.5267 36.1313 32.9338C36.0788 32.885 36.0281 32.8343 35.9775 32.7837C34.557 31.3303 34.2386 29.123 35.0944 27.2791L35.4473 26.5181L35.4491 26.5199Z" fill="#332267" style="fill:#332267;fill:color(display-p3 0.2000 0.1333 0.4039);fill-opacity:1;"/>
<path d="M29.7405 50.8372C29.3446 48.8458 28.3607 47.059 26.9763 45.6742C26.5081 45.2032 25.9925 44.7782 25.4381 44.4078C24.9132 44.0559 24.3522 43.7533 23.7636 43.5053C22.5588 42.9961 21.2316 42.7158 19.8413 42.7158C17.0528 42.7158 14.5247 43.8454 12.7069 45.6742C10.8779 47.5038 9.75 50.0326 9.75 52.8101C9.75 55.5876 10.8779 58.1283 12.7069 59.9578C14.5247 61.7873 17.0528 62.9162 19.8413 62.9162C22.6298 62.9162 25.1585 61.7866 26.9757 59.9578C28.3897 58.5434 29.3847 56.7112 29.7642 54.6633C29.8754 54.0627 29.9332 53.4423 29.9332 52.8101C29.9332 52.1351 29.8668 51.4759 29.7399 50.8372H29.7405ZM24.2891 57.2592C23.1487 58.4 21.5802 59.0999 19.8413 59.0999C18.1024 59.0999 16.5339 58.3888 15.3935 57.2592C14.2531 56.131 13.5533 54.5495 13.5533 52.8101C13.5533 51.0707 14.2649 49.5023 15.3935 48.3728C16.5339 47.2209 18.1031 46.5202 19.8413 46.5202C20.5884 46.5202 21.3026 46.6505 21.9662 46.8913C22.5713 47.1097 23.1336 47.4202 23.6367 47.8031C23.8669 47.9781 24.0846 48.1675 24.2891 48.3721C25.0119 49.0879 25.5578 49.9859 25.8596 50.9865C25.9418 51.2569 26.0056 51.5345 26.0504 51.8187C26.1023 52.1417 26.1293 52.4733 26.1293 52.8094C26.1293 53.1028 26.1089 53.3916 26.0694 53.6752C26.0168 54.0613 25.9287 54.435 25.8096 54.7955C25.4966 55.7382 24.9691 56.5803 24.2898 57.2592H24.2891Z" fill="#1E153A" style="fill:#1E153A;fill:color(display-p3 0.1176 0.0824 0.2275);fill-opacity:1;"/>
<path d="M80.471 50.4246C80.0751 48.4332 79.0912 46.6464 77.7068 45.2616C77.2386 44.7906 76.7229 44.3656 76.1685 43.9952C75.6437 43.6433 75.0827 43.3407 74.4941 43.0927C73.2893 42.5835 71.9621 42.3032 70.5718 42.3032C67.7832 42.3032 65.2552 43.4328 63.4374 45.2616C61.6084 47.0912 60.4805 49.62 60.4805 52.3975C60.4805 55.175 61.6084 57.7157 63.4374 59.5452C65.2552 61.3747 67.7832 62.5036 70.5718 62.5036C73.3603 62.5036 75.889 61.374 77.7062 59.5452C79.1201 58.1308 80.1152 56.2986 80.4947 54.2507C80.6058 53.6501 80.6637 53.0297 80.6637 52.3975C80.6637 51.7225 80.5973 51.0633 80.4703 50.4246H80.471ZM75.0196 56.8466C73.8792 57.9874 72.3106 58.6873 70.5718 58.6873C68.8329 58.6873 67.2643 57.9762 66.1239 56.8466C64.9835 55.7184 64.2838 54.1369 64.2838 52.3975C64.2838 50.6581 64.9954 49.0897 66.1239 47.9602C67.2643 46.8083 68.8335 46.1076 70.5718 46.1076C71.3189 46.1076 72.0331 46.2379 72.6967 46.4787C73.3017 46.6971 73.864 47.0076 74.3672 47.3905C74.5974 47.5655 74.815 47.7549 75.0196 47.9595C75.7424 48.6753 76.2882 49.5733 76.5901 50.5739C76.6723 50.8443 76.7361 51.1219 76.7808 51.4061C76.8328 51.7291 76.8597 52.0607 76.8597 52.3968C76.8597 52.6902 76.8393 52.979 76.7999 53.2626C76.7473 53.6487 76.6592 54.0224 76.5401 54.3829C76.2271 55.3256 75.6996 56.1677 75.0202 56.8466H75.0196Z" fill="#1E153A" style="fill:#1E153A;fill:color(display-p3 0.1176 0.0824 0.2275);fill-opacity:1;"/>
<path d="M66.3968 44.0316C66.869 45.2197 63.7503 49.701 60.5527 51.4181C60.7323 49.6826 61.3617 48.0458 62.3409 46.6545C62.6336 46.24 62.9572 45.8459 63.309 45.4782C63.8312 44.9335 64.4172 44.444 65.0565 44.025C65.5477 43.7013 66.0706 43.4197 66.623 43.1855L66.3974 44.0309L66.3968 44.0316Z" fill="#06060A" style="fill:#06060A;fill:color(display-p3 0.0235 0.0235 0.0392);fill-opacity:1;"/>
<path d="M11.4396 54.5734C11.4146 54.3102 11.6139 54.082 11.8737 54.0681C12.1367 54.0431 12.3676 54.2313 12.3814 54.4918C12.4005 54.7767 12.4557 55.0589 12.532 55.347C12.9338 56.8976 14.0756 58.2903 15.5395 59.2534C17.0114 60.2304 18.7825 60.7724 20.4471 60.6455C20.7812 60.6159 21.11 60.5613 21.4369 60.4711C21.6868 60.408 21.9505 60.558 22.011 60.8185C22.0741 61.0685 21.9242 61.3323 21.6743 61.3954C21.3014 61.4849 20.912 61.5474 20.5174 61.5849C18.6358 61.7375 16.649 61.1277 15.02 60.0396C13.3797 58.9488 12.0887 57.3654 11.6073 55.5845C11.5172 55.2582 11.4659 54.9181 11.439 54.5727L11.4396 54.5734Z" fill="#06060A" style="fill:#06060A;fill:color(display-p3 0.0235 0.0235 0.0392);fill-opacity:1;"/>
<path d="M31.9958 51.8372C31.3098 50.9294 28.3733 46.4796 27.0074 44.9921C22.7588 40.3634 16.0236 42.7528 16.0236 42.7528C12.6327 43.7797 10.3657 47.715 9.80533 49.9748C9.51464 51.1451 8.64454 51.6839 8.64454 51.6839L7.48047 52.4681V53.2181L10.6524 51.7925C10.951 51.6583 11.1785 51.4037 11.2779 51.0919C11.7856 49.4992 13.8487 44.4987 19.7486 44.4987C26.766 44.4987 29.0132 51.3537 29.0132 51.3537L31.9951 51.8372H31.9958Z" fill="#06060A" style="fill:#06060A;fill:color(display-p3 0.0235 0.0235 0.0392);fill-opacity:1;"/>
<path fill-rule="evenodd" clip-rule="evenodd" d="M20.3783 55.9022C22.0711 55.6081 23.222 53.9733 22.9281 52.28C22.6341 50.5867 20.9998 49.4354 19.3069 49.7295C17.6023 50.0255 16.4632 51.6583 16.7572 53.3517C17.0531 55.0568 18.6854 56.1963 20.3783 55.9022Z" fill="#1F1B34" style="fill:#1F1B34;fill:color(display-p3 0.1216 0.1059 0.2039);fill-opacity:1;"/>
<path d="M16.8709 53.9733L18.2626 52.5812C18.5966 52.247 19.0261 52.0247 19.4911 51.9451L28.7004 50.3668C29.1496 50.2899 29.6093 50.3057 30.0519 50.4129L32.2545 50.9464C32.4866 51.0023 32.7247 51.0313 32.9641 51.0313H34.6523C34.8832 51.0313 35.0963 51.155 35.2107 51.355L36.8983 54.3015H34.5918C34.4925 54.3015 34.4123 54.3732 34.3886 54.4699C34.3551 54.6081 34.2137 54.7805 33.7178 54.7805H17.2057C16.7848 54.7805 16.5743 54.2713 16.8716 53.9739L16.8709 53.9733Z" fill="#06060A" style="fill:#06060A;fill:color(display-p3 0.0235 0.0235 0.0392);fill-opacity:1;"/>
<path d="M20.8338 52.7772C20.6924 53.3219 20.1399 53.6509 19.5855 53.5035C19.041 53.3621 18.7121 52.8095 18.8529 52.2648L22.0583 39.741C22.1997 39.1963 22.7522 38.8674 23.3066 39.0147C23.8512 39.1562 24.18 39.7088 24.0498 40.2601L20.8338 52.7772Z" fill="#06060A" style="fill:#06060A;fill:color(display-p3 0.0235 0.0235 0.0392);fill-opacity:1;"/>
<path d="M31.5388 51.9106C31.4421 52.1047 31.2073 52.185 31.0094 52.0843C30.8154 51.9876 30.7351 51.7527 30.8325 51.558L33.0449 47.0898C33.1415 46.8957 33.3763 46.8155 33.5743 46.9161C33.7683 47.0128 33.8485 47.2477 33.7551 47.4457L31.5394 51.9106H31.5388Z" fill="#06060A" style="fill:#06060A;fill:color(display-p3 0.0235 0.0235 0.0392);fill-opacity:1;"/>
<path d="M31.9907 50.7772C32.0242 50.9917 31.8795 51.193 31.6605 51.2259C31.4461 51.2594 31.2449 51.1147 31.2113 50.9002L30.4228 45.9774C30.3893 45.763 30.5339 45.5616 30.7529 45.5288C30.9673 45.4952 31.1686 45.6399 31.2067 45.8551L31.9907 50.7772Z" fill="#06060A" style="fill:#06060A;fill:color(display-p3 0.0235 0.0235 0.0392);fill-opacity:1;"/>
<path d="M12.7733 36.4352L10.0455 36.3109C9.81111 36.3002 9.61243 36.4816 9.60175 36.716L9.5449 37.9634C9.53422 38.1978 9.71557 38.3966 9.94997 38.4073L12.6778 38.5316C12.9122 38.5423 13.1109 38.3609 13.1215 38.1265L13.1784 36.8791C13.1891 36.6447 13.0077 36.4459 12.7733 36.4352Z" fill="#06060A" style="fill:#06060A;fill:color(display-p3 0.0235 0.0235 0.0392);fill-opacity:1;"/>
<path d="M40.4299 55.0026L37.2928 55.9348L31.7822 47.1885L21.9454 39.9533L10.5447 38.7073C10.3369 38.6843 10.1797 38.5093 10.1797 38.3001V36.3278C10.1797 36.1153 10.3599 35.9476 10.5723 35.9627L23.8908 36.9337C24.5827 36.9844 25.2423 36.6324 25.5856 36.0291L26.2209 34.9141L43.565 38.4422C43.8452 38.4632 44.1082 38.5849 44.3055 38.7849C44.9967 39.4849 46.6179 41.1467 46.6981 41.4013C46.7784 41.6545 46.3746 42.0743 46.7008 42.3696C47.0414 42.6782 50.3712 45.8392 49.0973 51.1771C47.8234 56.515 40.4299 55.0039 40.4299 55.0039V55.0026Z" fill="#1F1B34" style="fill:#1F1B34;fill:color(display-p3 0.1216 0.1059 0.2039);fill-opacity:1;"/>
<path d="M7.30469 32.5972L10.1787 33.0057L11.9202 33.5708L12.7995 35.3924C12.7995 35.3924 13.1067 36.42 13.9879 36.42C14.8692 36.42 22.6626 37.0522 22.6626 37.0522C22.6626 37.0522 23.7353 37.2581 24.6494 36.9983C24.9861 36.9029 25.2768 36.6884 25.4847 36.4075C25.5504 36.318 25.9378 36.2194 25.9523 36.1095L26.2423 32.7097L7.30469 32.5972Z" fill="#1F1B34" style="fill:#1F1B34;fill:color(display-p3 0.1216 0.1059 0.2039);fill-opacity:1;"/>
<path d="M40.2242 48.2472L40.2168 48.2412C40.2168 48.2412 40.2215 48.2446 40.2255 48.2466L40.2242 48.2479V48.2472Z" fill="#5000B4" style="fill:#5000B4;fill:color(display-p3 0.3137 0.0000 0.7059);fill-opacity:1;"/>
<path d="M54.4196 50.251V50.2543L54.3624 51.0312L53.9889 56.1856H39.9785V50.251H54.4196Z" fill="#1F1B34" style="fill:#1F1B34;fill:color(display-p3 0.1216 0.1059 0.2039);fill-opacity:1;"/>
<path fill-rule="evenodd" clip-rule="evenodd" d="M65.8984 41.1947C65.8984 41.1947 73.2262 39.954 77.3689 43.8748C77.5142 44.0123 77.4188 44.257 77.2189 44.257H72.3199C72.3199 44.257 71.0756 44.1577 71.0756 45.1287C71.0756 46.0997 70.9763 46.8714 70.3541 47.3944C69.732 47.9174 69.4084 47.9917 69.4084 47.9917L65.8991 41.1947H65.8984Z" fill="#5D3EBC" style="fill:#5D3EBC;fill:color(display-p3 0.3650 0.2430 0.7370);fill-opacity:1;"/>
<path d="M66.2792 44.644L60.2017 51.67L57.5342 54.7534C56.422 56.0395 54.8121 56.7947 53.112 56.8079H53.0469L53.1778 56.1856L54.259 51.0312L54.4221 50.2536V50.2503L57.3967 36.0655C57.3967 36.0655 57.5105 35.4767 57.398 34.7004C57.3053 34.0649 57.0606 33.3031 56.476 32.638C55.1771 31.1591 54.8528 27.2632 54.8528 27.2632L56.2905 26.4106L63.2921 36.4621L66.2799 44.6433L66.2792 44.644Z" fill="#1F1B34" style="fill:#1F1B34;fill:color(display-p3 0.1216 0.1059 0.2039);fill-opacity:1;"/>
<path d="M71.5525 51.9231C71.8123 52.4225 71.6222 53.0369 71.1112 53.2987C70.612 53.5586 69.9977 53.3685 69.738 52.8691L62.0123 37.1876C61.7525 36.6883 61.9426 36.0739 62.4536 35.812C62.9528 35.5522 63.567 35.7423 63.8387 36.2397L71.5525 51.9231Z" fill="#06060A" style="fill:#06060A;fill:color(display-p3 0.0235 0.0235 0.0392);fill-opacity:1;"/>
<path d="M57.2933 31.548L56.2891 26.4114L58.2377 25.3285C58.4646 25.2022 58.7422 25.2075 58.9651 25.3417L64.7428 28.8297C65.4728 29.2705 66.0857 29.8796 66.5316 30.6059L69.3964 35.2741C69.5753 35.5656 69.67 35.9011 69.67 36.2438V38.2983C69.67 38.647 69.428 38.949 69.0873 39.0246L67.7398 39.3239L67.2597 44.5645C67.2419 44.7579 67.0505 44.8855 66.8657 44.8276L64.6908 44.1487C64.4764 44.0816 64.3041 43.9217 64.2219 43.7125L61.2775 36.253C61.1275 35.8734 60.9 35.5287 60.6093 35.2425L57.778 32.4499C57.5294 32.2045 57.3604 31.8901 57.294 31.5473L57.2933 31.548Z" fill="#FFD300" style="fill:#FFD300;fill:color(display-p3 1.0000 0.8275 0.0000);fill-opacity:1;"/>
<path fill-rule="evenodd" clip-rule="evenodd" d="M71.1088 55.4896C72.8016 55.1955 73.9525 53.5607 73.6585 51.8674C73.3646 50.1741 71.7302 49.0228 70.0374 49.3169C68.3327 49.6129 67.1936 51.2457 67.4876 52.9391C67.7836 54.6442 69.4159 55.7837 71.1088 55.4896Z" fill="#1F1B34" style="fill:#1F1B34;fill:color(display-p3 0.1216 0.1059 0.2039);fill-opacity:1;"/>
<path d="M38.15 56.519C37.591 56.4795 37.1609 55.9999 37.1997 55.4467C37.2385 54.8934 37.7324 54.479 38.2914 54.5184L53.091 54.9487C53.8006 54.9276 54.3958 54.8046 54.8877 54.5908C55.3297 54.3855 55.6796 54.1027 55.9755 53.7218L58.6351 47.8905C58.866 47.3865 59.4677 47.1688 59.9781 47.3826C60.4996 47.6089 60.7384 48.2049 60.5075 48.7088L57.3954 54.6211C57.354 54.6888 57.3244 54.7579 57.283 54.8263C56.7825 55.5125 56.1209 56.0565 55.3271 56.4026C54.5576 56.7499 53.6776 56.9242 52.6865 56.9492C52.649 56.9584 52.6004 56.9552 52.576 56.9532L38.15 56.519Z" fill="#1F1B34" style="fill:#1F1B34;fill:color(display-p3 0.1216 0.1059 0.2039);fill-opacity:1;"/>
<path d="M56.0539 26.8414C56.0348 26.7507 54.4531 24.1449 54.4531 24.1449L56.4373 22.2607L57.8145 25.8757L56.0539 26.8414Z" fill="#1F1B34" style="fill:#1F1B34;fill:color(display-p3 0.1216 0.1059 0.2039);fill-opacity:1;"/>
<path d="M55.1858 21.7931C54.8326 21.7931 54.5031 21.5859 54.3453 21.2445L52.2736 16.6618C52.1276 16.3572 52.1763 15.9914 52.3834 15.723C52.5906 15.4546 52.9319 15.3211 53.2608 15.3697L54.5156 15.5645C54.7839 15.6013 55.0154 15.7592 55.1489 15.9908C55.2949 16.2223 55.3318 16.4907 55.2463 16.7466L54.8806 17.9657L56.0263 20.4767C56.2334 20.9399 56.0263 21.4885 55.5633 21.6958C55.4416 21.7688 55.3074 21.7931 55.1858 21.7931Z" fill="#1F1B34" style="fill:#1F1B34;fill:color(display-p3 0.1216 0.1059 0.2039);fill-opacity:1;"/>
<path opacity="0.42" d="M58.332 27.2331C58.332 27.2331 60.7555 26.9667 64.5325 31.7671C68.3095 36.5682 67.2744 39.8102 67.2744 39.8102" fill="#FDA804" style="fill:#FDA804;fill:color(display-p3 0.9922 0.6588 0.0157);fill-opacity:1;"/>
<path d="M56.4805 26.6039L67.6036 40.7967L67.7385 39.3237L57.4308 26.0757L56.4805 26.6039Z" fill="#5D3EBC" style="fill:#5D3EBC;fill:color(display-p3 0.3650 0.2430 0.7370);fill-opacity:1;"/>
<path d="M60.2807 38.5793L59.9788 47.3828L55.9453 51.0313H49.0977L49.435 50.2511H54.4208L57.3955 36.0662C57.3955 36.0662 57.5093 35.4775 57.3968 34.7012L59.7545 37.1912C60.1084 37.5649 60.2978 38.0648 60.28 38.5793H60.2807Z" fill="#06060A" style="fill:#06060A;fill:color(display-p3 0.0235 0.0235 0.0392);fill-opacity:1;"/>
<path d="M49.2516 50.8877C49.2286 50.962 49.1543 51.0074 49.0786 50.9936C43.034 49.8818 40.5223 48.3128 40.3566 48.1931C40.3487 48.1891 40.3454 48.1858 40.3454 48.1858L26.1621 37.6686L29.4649 36.4331L45.2076 40.5119C45.493 40.5921 45.7409 40.7757 45.9021 41.0276L46.4966 41.9618C46.4966 41.9618 46.6196 42.1624 46.7044 42.4394C50.5321 45.9504 49.4923 50.1075 49.2522 50.8877H49.2516Z" fill="#5D3EBC" style="fill:#5D3EBC;fill:color(display-p3 0.3650 0.2430 0.7370);fill-opacity:1;"/>
<path d="M46.7044 42.4387L26.1621 37.6679L29.4643 36.4331L45.2076 40.5119C45.493 40.5921 45.7409 40.7757 45.9014 41.027L46.496 41.9611C46.496 41.9611 46.6189 42.1618 46.7044 42.4381V42.4387Z" fill="#38008F" style="fill:#38008F;fill:color(display-p3 0.2196 0.0000 0.5608);fill-opacity:1;"/>
<path d="M48.2917 51.8246C48.2746 51.8246 48.2569 51.8265 48.2398 51.8292C41.9912 52.9258 38.0643 50.0016 38.0643 50.0016L24.68 39.4357C24.3834 39.2015 24.4091 38.7429 24.7307 38.5436L25.8323 37.8608C26.0204 37.7443 26.2598 37.7542 26.4373 37.8857L40.3089 48.1734C40.3287 48.1879 40.349 48.2011 40.3707 48.2129C40.6404 48.3596 42.5799 49.3424 48.8941 50.9378C48.9165 50.9437 48.9395 50.947 48.9625 50.9476C49.3387 50.9601 52.7303 51.068 55.3406 51.0134C55.7536 51.0049 56.1489 50.8457 56.4534 50.5667L59.9726 47.3485C59.9772 47.3445 59.9818 47.3406 59.9864 47.3366L64.3481 43.7546C64.4434 43.6769 64.3547 43.8677 64.4658 43.9184L65.4734 44.3782C65.5411 44.4091 65.7088 44.2756 65.7417 44.3427L66.2783 44.6446C66.5138 44.3881 65.843 45.14 65.7588 45.238L59.2459 52.7739C59.0683 52.9798 58.725 52.8877 58.6849 52.6186C58.6336 52.2759 58.4501 51.9344 57.966 51.7871C57.9351 51.7779 57.9023 51.7739 57.87 51.7739L48.2911 51.8252L48.2917 51.8246Z" fill="#FFD300" style="fill:#FFD300;fill:color(display-p3 1.0000 0.8275 0.0000);fill-opacity:1;"/>
<path d="M25.5708 35.8965C25.5708 35.8965 24.8335 34.5235 25.2807 33.1499C25.7319 31.7651 30.3928 34.0058 36.2849 33.9775C42.8234 33.9466 44.7589 32.5723 46.8977 37.1418C49.1094 41.8673 46.3051 40.6324 46.3051 40.6324C46.2834 41.0943 37.2674 37.8477 25.5714 35.8965H25.5708Z" fill="#06060A" style="fill:#06060A;fill:color(display-p3 0.0235 0.0235 0.0392);fill-opacity:1;"/>
<path d="M57.8158 53.8155H43.451C40.9327 53.8155 38.4533 52.9609 36.4698 51.4084L23.0638 40.9168L14.332 39.9622C13.7835 39.9023 13.3875 39.4089 13.4474 38.8603C13.5072 38.3116 14.0005 37.9143 14.549 37.9755L23.8471 38.9919L37.7009 49.8341C39.3346 51.1123 41.3767 51.8169 43.451 51.8169H57.8158C58.3676 51.8169 58.8148 52.2643 58.8148 52.8162C58.8148 53.3682 58.3676 53.8155 57.8158 53.8155Z" fill="#06060A" style="fill:#06060A;fill:color(display-p3 0.0235 0.0235 0.0392);fill-opacity:1;"/>
<path d="M75.6058 59.5421C75.377 59.6736 75.0869 59.5861 74.9666 59.3552C74.835 59.1263 74.9113 58.8381 75.1422 58.7178C75.3934 58.5822 75.6282 58.4158 75.8584 58.227C77.104 57.2205 77.8998 55.6041 78.1714 53.8732C78.4529 52.1293 78.2142 50.2918 77.4098 48.8274C77.2448 48.5353 77.0593 48.2584 76.8423 47.9979C76.6811 47.7966 76.7088 47.4939 76.9212 47.3315C77.1224 47.1703 77.425 47.1979 77.5854 47.3992C77.8215 47.7018 78.0386 48.0308 78.2359 48.3748C79.152 50.0254 79.4183 52.0871 79.1014 54.0213C78.7863 55.9659 77.8787 57.7961 76.4562 58.971C76.1964 59.1881 75.9077 59.3756 75.6052 59.5427L75.6058 59.5421Z" fill="#06060A" style="fill:#06060A;fill:color(display-p3 0.0235 0.0235 0.0392);fill-opacity:1;"/>
<path d="M50.8107 22.7069C50.055 22.5609 49.5677 21.8418 49.7019 21.0859C49.8479 20.3301 50.5667 19.8426 51.3224 19.9768L53.9544 20.4768C54.1615 20.5136 54.3562 20.5985 54.5272 20.7327L56.1234 21.9274C56.7324 22.3905 56.8547 23.2556 56.4035 23.8654C56.1234 24.2312 55.709 24.4259 55.2822 24.4259C54.9895 24.4259 54.6975 24.3404 54.4535 24.1457L53.1132 23.1464" fill="#1F1B34" style="fill:#1F1B34;fill:color(display-p3 0.1216 0.1059 0.2039);fill-opacity:1;"/>
<path d="M78.1377 21.438H77.1743C76.9561 21.438 76.7793 21.6148 76.7793 21.833C76.7793 22.0511 76.9561 22.228 77.1743 22.228H78.1377C78.3558 22.228 78.5327 22.0511 78.5327 21.833C78.5327 21.6148 78.3558 21.438 78.1377 21.438Z" fill="#251A49" style="fill:#251A49;fill:color(display-p3 0.1451 0.1020 0.2863);fill-opacity:1;"/>
<path d="M74.9946 21.438H62.5844C62.3663 21.438 62.1895 21.6148 62.1895 21.833C62.1895 22.0511 62.3663 22.228 62.5844 22.228H74.9946C75.2128 22.228 75.3896 22.0511 75.3896 21.833C75.3896 21.6148 75.2128 21.438 74.9946 21.438Z" fill="#251A49" style="fill:#251A49;fill:color(display-p3 0.1451 0.1020 0.2863);fill-opacity:1;"/>
<path d="M54.7195 6.21143H28.4904C28.3242 6.21143 28.1895 6.34618 28.1895 6.51242C28.1895 6.67865 28.3242 6.81341 28.4904 6.81341H54.7195C54.8857 6.81341 55.0205 6.67865 55.0205 6.51242C55.0205 6.34618 54.8857 6.21143 54.7195 6.21143Z" fill="#251A49" style="fill:#251A49;fill:color(display-p3 0.1451 0.1020 0.2863);fill-opacity:1;"/>
<path d="M50.278 48.0933C50.4644 48.0933 50.6436 48.1511 50.7938 48.2614C51.2009 48.5633 51.6587 49.0297 52.8403 49.3388C53.1569 49.422 53.4826 49.469 53.8102 49.5015C54.3783 49.5557 55.5581 49.7474 55.8476 50.3909C55.9146 50.541 55.9671 50.6964 55.9671 50.8609V51.1267H47.9004V50.653V48.5072C47.9004 48.2776 48.0868 48.0933 48.3148 48.0933H50.2799H50.278Z" fill="#332267" style="fill:#332267;fill:color(display-p3 0.2000 0.1333 0.4039);fill-opacity:1;"/>
<path d="M45.0469 13.0825L38.9092 12.401L38.7246 10.8481H44.4806L45.0469 13.0825Z" fill="#422C85" style="fill:#422C85;fill:color(display-p3 0.2588 0.1725 0.5216);fill-opacity:1;"/>
<path d="M58.7273 26.6011L58.2731 26.4023C56.5812 25.6611 55.4883 23.9907 55.4883 22.145L56.3767 21.6226L57.7465 17.66C57.96 17.0417 58.749 16.8646 59.2086 17.331C59.6736 17.8046 59.9378 18.4409 59.9414 19.1062L60.5259 24.2709C60.5675 24.6397 60.781 24.9687 61.1013 25.1567C61.7835 25.558 61.4994 26.6029 60.7086 26.6029H58.7291L58.7273 26.6011Z" fill="#5538AB" style="fill:#5538AB;fill:color(display-p3 0.3333 0.2196 0.6706);fill-opacity:1;"/>
<path d="M40.6997 8.14941L40.687 7.63963C40.687 7.63963 40.6309 7.63963 40.602 7.63963C40.146 7.63963 39.7786 7.25819 39.804 6.79722C39.8275 6.36516 40.2165 6.04158 40.6508 6.04158H41.0923C41.2642 6.04339 41.4054 5.90419 41.4054 5.73245C41.4054 5.5101 41.5845 5.33113 41.8071 5.33113L43.4935 3.61377H45.4297V5.3004C45.4297 5.3004 46.2873 7.0973 46.329 7.18588C46.3887 7.34135 46.3181 7.51851 46.1661 7.58901L45.6106 7.84933C45.4984 7.90175 45.4278 8.01383 45.4278 8.13676V8.93759V9.46546C45.4278 10.1651 44.7764 10.6803 44.0943 10.523L43.394 10.3332C43.394 10.3332 43.1642 11.4377 42.985 12.291C42.8783 12.7989 42.3354 13.081 41.8577 12.8767L40.4246 12.262C40.0591 12.1048 39.8583 11.7089 39.9487 11.3202L40.696 8.14941H40.6997Z" fill="#FFAAAA" style="fill:#FFAAAA;fill:color(display-p3 1.0000 0.6667 0.6667);fill-opacity:1;"/>
<mask id="mask0_21184_6545" style="mask-type:alpha" maskUnits="userSpaceOnUse" x="39" y="3" width="8" height="10">
<path d="M40.6997 8.14941L40.687 7.63963C40.687 7.63963 40.6309 7.63963 40.602 7.63963C40.146 7.63963 39.7786 7.25819 39.804 6.79722C39.8275 6.36516 40.2165 6.04158 40.6508 6.04158H41.0923C41.2642 6.04339 41.4054 5.90419 41.4054 5.73245C41.4054 5.5101 41.5845 5.33113 41.8071 5.33113L43.4935 3.61377H45.4297V5.3004C45.4297 5.3004 46.2873 7.0973 46.329 7.18588C46.3887 7.34135 46.3181 7.51851 46.1661 7.58901L45.6106 7.84933C45.4984 7.90175 45.4278 8.01383 45.4278 8.13676V8.93759V9.46546C45.4278 10.1651 44.7764 10.6803 44.0943 10.523L43.394 10.3332C43.394 10.3332 43.1642 11.4377 42.985 12.291C42.8783 12.7989 42.3354 13.081 41.8577 12.8767L40.4246 12.262C40.0591 12.1048 39.8583 11.7089 39.9487 11.3202L40.696 8.14941H40.6997Z" fill="#FFAAAA" style="fill:#FFAAAA;fill:color(display-p3 1.0000 0.6667 0.6667);fill-opacity:1;"/>
</mask>
<g mask="url(#mask0_21184_6545)">
<path d="M40.8027 8.63086C40.8027 8.63086 41.2587 11.0424 43.9748 11.5468V9.457L40.8027 8.63086Z" fill="#332267" style="fill:#332267;fill:color(display-p3 0.2000 0.1333 0.4039);fill-opacity:1;"/>
</g>
<path d="M45.0468 9.37872C44.4207 9.37872 43.9141 8.87255 43.9141 8.24707H45.0468V9.37872Z" fill="white" style="fill:white;fill-opacity:1;"/>
<path d="M44.6238 6.21155C44.7678 6.21155 44.8844 6.095 44.8844 5.95123C44.8844 5.80747 44.7678 5.69092 44.6238 5.69092C44.4799 5.69092 44.3633 5.80747 44.3633 5.95123C44.3633 6.095 44.4799 6.21155 44.6238 6.21155Z" fill="#101010" style="fill:#101010;fill:color(display-p3 0.0627 0.0627 0.0627);fill-opacity:1;"/>
<path d="M26.0611 18.75H15.1752C11.2848 18.75 7.91376 21.9262 7.84862 25.8129C7.79434 29.1644 10.0381 32.0008 13.1088 32.8541C13.8633 33.0638 14.4478 33.6567 14.6016 34.4232C14.8549 35.676 15.9569 36.5762 17.238 36.5762H27.999C29.6873 36.5762 31.2326 35.6272 31.9944 34.1231C32.3255 33.4705 32.4341 32.7275 32.3038 32.0062L30.5956 22.5372C30.1993 20.3444 28.2903 18.75 26.0593 18.75H26.0611Z" fill="#FFD300" style="fill:#FFD300;fill:color(display-p3 1.0000 0.8275 0.0000);fill-opacity:1;"/>
<path d="M7.59672 24.0435C7.39527 23.9715 7.17373 24.077 7.10259 24.2787C7.03183 24.4794 7.13662 24.6995 7.33697 24.771L32.1032 33.6133C32.3047 33.6852 32.5262 33.5797 32.5974 33.378C32.6681 33.1773 32.5633 32.9573 32.363 32.8857L7.59672 24.0435Z" fill="#E8C000" style="fill:#E8C000;fill:color(display-p3 0.9098 0.7529 0.0000);fill-opacity:1;"/>
<path d="M43.6242 13.1765L43.5156 12.9415L43.7834 12.7716C44.2539 12.4733 44.1092 11.7538 43.5591 11.6616L38.7278 10.8481L38.8924 12.1949C38.8924 12.1949 37.6439 13.4712 37.4955 13.6429C36.0696 15.2844 35.0744 17.2512 34.5207 19.3536C33.8639 21.8519 32.2317 26.1742 32.1485 27.042C32.1032 27.512 32.4525 27.8952 32.9247 27.8952L41.2339 27.9079L41.5723 27.5897C41.6247 27.5409 41.6844 27.4975 41.7424 27.4541C42.1169 27.1721 42.2599 26.6786 42.1024 26.2448C42.0102 25.9881 41.8654 25.462 42.0952 24.8709C42.0952 24.8709 44.2485 20.1508 44.1978 16.1864C44.1852 15.2139 44.0313 14.0587 43.6224 13.1765H43.6242Z" fill="#5D3EBC" style="fill:#5D3EBC;fill:color(display-p3 0.3650 0.2430 0.7370);fill-opacity:1;"/>
<mask id="mask1_21184_6545" style="mask-type:alpha" maskUnits="userSpaceOnUse" x="32" y="10" width="13" height="18">
<path d="M43.6242 13.1765L43.5156 12.9415L43.7834 12.7716C44.2539 12.4733 44.1092 11.7538 43.5591 11.6616L38.7278 10.8481L38.8924 12.1949C38.8924 12.1949 37.6439 13.4712 37.4955 13.6429C36.0696 15.2844 35.0744 17.2512 34.5207 19.3536C33.8639 21.8519 32.2317 26.1742 32.1485 27.042C32.1032 27.512 32.4525 27.8952 32.9247 27.8952L41.2339 27.9079L41.5723 27.5897C41.6247 27.5409 41.6844 27.4975 41.7424 27.4541C42.1169 27.1721 42.2599 26.6786 42.1024 26.2448C42.0102 25.9881 41.8654 25.462 42.0952 24.8709C42.0952 24.8709 44.2485 20.1508 44.1978 16.1864C44.1852 15.2139 44.0313 14.0587 43.6224 13.1765H43.6242Z" fill="#5D3EBC" style="fill:#5D3EBC;fill:color(display-p3 0.3650 0.2430 0.7370);fill-opacity:1;"/>
</mask>
<g mask="url(#mask1_21184_6545)">
<path d="M45.7948 18.5869H33.6641V19.8162H45.7948V18.5869Z" fill="#D1D4DA" style="fill:#D1D4DA;fill:color(display-p3 0.8196 0.8314 0.8549);fill-opacity:1;"/>
<path d="M45.7948 16.77H33.6641V17.9993H45.7948V16.77Z" fill="#D1D4DA" style="fill:#D1D4DA;fill:color(display-p3 0.8196 0.8314 0.8549);fill-opacity:1;"/>
<path d="M37.6543 15.5698C37.6543 15.5698 35.7055 23.0539 42.1038 26.2464V20.9081L37.6543 15.5698Z" fill="#332267" style="fill:#332267;fill:color(display-p3 0.2000 0.1333 0.4039);fill-opacity:1;"/>
</g>
<path d="M57.4528 19.1276C57.556 19.2523 57.5524 19.4331 57.4456 19.556C57.2846 19.7441 57.024 20.0026 56.7272 20.1725C56.9679 20.5973 56.8593 21.1432 56.454 21.4343C56.0179 21.7488 55.4117 21.6494 55.0969 21.2156C54.782 20.7799 54.8454 20.1164 55.3158 19.8597C55.5692 19.7224 56.4468 19.5344 56.9842 19.0806C57.1253 18.9631 57.3352 18.9866 57.451 19.1276H57.4528Z" fill="#D88F91" style="fill:#D88F91;fill:color(display-p3 0.8471 0.5608 0.5686);fill-opacity:1;"/>
<path d="M52.4512 19.8363L56.6492 19.9646C56.9477 19.9646 57.2174 20.1436 57.3332 20.4184L58.1221 22.3002C58.2126 22.5172 58.1836 22.7648 58.0461 22.9546L57.4888 23.7428C57.3313 23.967 56.9984 23.9652 56.8428 23.7392L55.1618 21.5609L52.4512 22.0851V19.8345V19.8363Z" fill="#FFAAAA" style="fill:#FFAAAA;fill:color(display-p3 1.0000 0.6667 0.6667);fill-opacity:1;"/>
<path d="M53.0236 19.5456L44.7434 21.3136C43.6631 18.705 42.8199 16.7978 42.5485 14.2995C42.5068 13.9199 42.3928 13.5475 42.1721 13.2383C42.0762 13.1046 41.9658 12.9798 41.8373 12.8659C41.3542 12.4321 40.7372 12.2441 40.1364 12.2893C40.1364 12.2893 38.7485 12.2603 37.9904 13.5945C37.7045 14.097 37.614 14.6863 37.6737 15.2612C38.0356 18.7267 40.3156 23.0544 41.6021 24.8965C42.1287 25.6504 43.0732 25.9884 43.9599 25.7444L53.0217 22.8176V19.5456H53.0236Z" fill="#5D3EBC" style="fill:#5D3EBC;fill:color(display-p3 0.3650 0.2430 0.7370);fill-opacity:1;"/>
<mask id="mask2_21184_6545" style="mask-type:alpha" maskUnits="userSpaceOnUse" x="37" y="12" width="17" height="14">
<path d="M53.0236 19.5456L44.7434 21.3136C43.6631 18.705 42.8199 16.7978 42.5485 14.2995C42.5068 13.9199 42.3928 13.5475 42.1721 13.2383C42.0762 13.1046 41.9658 12.9798 41.8373 12.8659C41.3542 12.4321 40.7372 12.2441 40.1364 12.2893C40.1364 12.2893 38.7485 12.2603 37.9904 13.5945C37.7045 14.097 37.614 14.6863 37.6737 15.2612C38.0356 18.7267 40.3156 23.0544 41.6021 24.8965C42.1287 25.6504 43.0732 25.9884 43.9599 25.7444L53.0217 22.8176V19.5456H53.0236Z" fill="#5D3EBC" style="fill:#5D3EBC;fill:color(display-p3 0.3650 0.2430 0.7370);fill-opacity:1;"/>
</mask>
<g mask="url(#mask2_21184_6545)">
<path d="M50.4082 18.9582V24.7104H51.6387V18.9582H50.4082Z" fill="#D1D4DA" style="fill:#D1D4DA;fill:color(display-p3 0.8196 0.8314 0.8549);fill-opacity:1;"/>
</g>
<path d="M55.6229 23.5043C56.4254 23.5043 57.076 22.8544 57.076 22.0527C57.076 21.251 56.4254 20.6011 55.6229 20.6011C54.8205 20.6011 54.1699 21.251 54.1699 22.0527C54.1699 22.8544 54.8205 23.5043 55.6229 23.5043Z" fill="#5D3EBC" style="fill:#5D3EBC;fill:color(display-p3 0.3650 0.2430 0.7370);fill-opacity:1;"/>
<path d="M12.5078 16.6606C11.1181 16.6606 9.98721 15.5307 9.98721 14.1424C9.98721 12.8852 10.9145 11.84 12.1215 11.6537C12.3332 11.621 12.5078 11.4506 12.5078 11.2364C12.5078 11.0222 12.3334 10.8462 12.1207 10.8712C10.4841 11.0631 9.21094 12.4564 9.21094 14.1424C9.21094 15.9591 10.6893 17.4361 12.5078 17.4361H27.7757C27.9898 17.4361 28.1635 17.2625 28.1635 17.0483C28.1635 16.8342 27.9899 16.6606 27.7757 16.6606H12.5078Z" fill="#251A49" style="fill:#251A49;fill:color(display-p3 0.1451 0.1020 0.2863);fill-opacity:1;"/>
<path d="M31.0713 16.6602H30.126C29.9119 16.6602 29.7383 16.8338 29.7383 17.0479C29.7383 17.2621 29.9119 17.4357 30.126 17.4357H31.0713C31.2855 17.4357 31.4591 17.2621 31.4591 17.0479C31.4591 16.8338 31.2855 16.6602 31.0713 16.6602Z" fill="#251A49" style="fill:#251A49;fill:color(display-p3 0.1451 0.1020 0.2863);fill-opacity:1;"/>
<path d="M33.8658 16.6602H33.6768C33.4627 16.6602 33.2891 16.8338 33.2891 17.0479C33.2891 17.2621 33.4627 17.4357 33.6768 17.4357H33.8658C34.0799 17.4357 34.2535 17.2621 34.2535 17.0479C34.2535 16.8338 34.0799 16.6602 33.8658 16.6602Z" fill="#251A49" style="fill:#251A49;fill:color(display-p3 0.1451 0.1020 0.2863);fill-opacity:1;"/>
<path d="M4.10029 37.2542C2.37223 37.2542 0.966264 35.8496 0.966264 34.1232C0.966264 32.3968 2.37223 30.9904 4.10029 30.9904C4.12924 30.9904 4.15819 30.994 4.18714 30.994C5.44111 31.05 6.44719 32.0805 6.44719 33.3477C6.44719 34.4553 5.67867 35.3805 4.64782 35.6335C4.39463 35.6957 4.18714 35.9049 4.18714 36.1656C4.18714 36.4408 4.41617 36.6649 4.68679 36.6152C6.23521 36.3306 7.41164 34.9753 7.41164 33.3477C7.41164 31.549 5.97491 30.0829 4.18714 30.0269V30.0305C4.15819 30.0305 4.12924 30.0269 4.10029 30.0269C1.84024 30.0269 0 31.8635 0 34.1232C0 36.3829 1.83843 38.2196 4.10029 38.2196H10.6864C10.9524 38.2196 11.1681 38.0039 11.1681 37.7378C11.1681 37.4717 10.9524 37.256 10.6864 37.256H4.10029V37.2542Z" fill="#251A49" style="fill:#251A49;fill:color(display-p3 0.1451 0.1020 0.2863);fill-opacity:1;"/>
<path d="M40.0071 2.83252H38.6699V3.4345H40.0071V2.83252Z" fill="#101010" style="fill:#101010;fill:color(display-p3 0.0627 0.0627 0.0627);fill-opacity:1;"/>
<path d="M42.1769 2.83252H41.4277V3.4345H42.1769V2.83252Z" fill="#101010" style="fill:#101010;fill:color(display-p3 0.0627 0.0627 0.0627);fill-opacity:1;"/>
<path opacity="0.4" d="M46.4816 4.07848C46.4816 4.07848 47.922 6.75214 46.098 9.29564L41.3789 7.36135V2.46777L46.4798 4.07848H46.4816Z" fill="#1C1347" style="fill:#1C1347;fill:color(display-p3 0.1098 0.0745 0.2784);fill-opacity:1;"/>
<path d="M46.6944 1.83298C46.6944 1.83298 46.6836 1.82575 46.68 1.82033C46.6329 1.78056 46.5859 1.7426 46.537 1.70463C45.0514 0.525982 43.2257 0.162624 42.111 0.052351C41.769 0.00173398 41.4289 -0.0109203 41.0941 0.00896498C38.7671 0.151777 36.7586 1.9288 36.5595 4.34756C36.3768 6.56929 37.7248 8.49816 39.6628 9.2086V9.21403L45.6848 11.17L46.2204 10.2264C46.604 9.55027 46.2855 8.69159 45.5527 8.43127L44.5556 8.07514C44.5321 8.06611 44.5086 8.05526 44.4851 8.04441C43.09 7.43701 42.6394 5.95285 43.2401 4.80673C43.4681 4.43253 43.9259 4.26622 44.3403 4.40903L46.6963 5.22252C47.0726 5.35267 47.4852 5.13936 47.5901 4.75431C47.6155 4.66031 47.6372 4.56449 47.6553 4.46688C47.8561 3.3768 47.4381 2.46931 46.6981 1.83118L46.6944 1.83298Z" fill="#5D3EBC" style="fill:#5D3EBC;fill:color(display-p3 0.3650 0.2430 0.7370);fill-opacity:1;"/>
<mask id="mask3_21184_6545" style="mask-type:alpha" maskUnits="userSpaceOnUse" x="36" y="0" width="12" height="12">
<path d="M46.6944 1.83298C46.6944 1.83298 46.6836 1.82575 46.68 1.82033C46.6329 1.78056 46.5859 1.7426 46.537 1.70463C45.0514 0.525982 43.2257 0.162624 42.111 0.052351C41.769 0.00173398 41.4289 -0.0109203 41.0941 0.00896498C38.7671 0.151777 36.7586 1.9288 36.5595 4.34756C36.3768 6.56929 37.7248 8.49816 39.6628 9.2086V9.21403L45.6848 11.17L46.2204 10.2264C46.604 9.55027 46.2855 8.69159 45.5527 8.43127L44.5556 8.07514C44.5321 8.06611 44.5086 8.05526 44.4851 8.04441C43.09 7.43701 42.6394 5.95285 43.2401 4.80673C43.4681 4.43253 43.9259 4.26622 44.3403 4.40903L46.6963 5.22252C47.0726 5.35267 47.4852 5.13936 47.5901 4.75431C47.6155 4.66031 47.6372 4.56449 47.6553 4.46688C47.8561 3.3768 47.4381 2.46931 46.6981 1.83118L46.6944 1.83298Z" fill="#5D3EBC" style="fill:#5D3EBC;fill:color(display-p3 0.3650 0.2430 0.7370);fill-opacity:1;"/>
</mask>
<g mask="url(#mask3_21184_6545)">
<path d="M36.876 5.03328C38.0103 5.03328 38.9298 4.11466 38.9298 2.98148C38.9298 1.84831 38.0103 0.929688 36.876 0.929688C35.7418 0.929688 34.8223 1.84831 34.8223 2.98148C34.8223 4.11466 35.7418 5.03328 36.876 5.03328Z" fill="#FFD300" style="fill:#FFD300;fill:color(display-p3 1.0000 0.8275 0.0000);fill-opacity:1;"/>
</g>
<path d="M51.0574 48.0933C51.2437 48.0933 51.4229 48.1511 51.573 48.2614C51.9802 48.5633 52.438 49.0297 53.6196 49.3388C53.9362 49.422 54.2619 49.469 54.5895 49.5015C55.1576 49.5557 56.3374 49.7474 56.6269 50.3909C56.6939 50.541 56.7464 50.6964 56.7464 50.8609V51.1267H48.6797V50.653V48.5072C48.6797 48.2776 48.8661 48.0933 49.0941 48.0933H51.0592H51.0574Z" fill="#251A49" style="fill:#251A49;fill:color(display-p3 0.1451 0.1020 0.2863);fill-opacity:1;"/>
<path d="M32.6426 27.7597L52.8618 27.2915C53.9764 27.3024 54.7816 28.2315 54.7382 29.3451L52.8636 48.6049H48.2747L49.3876 32.9986L37.4088 34.2152C36.5511 34.3472 35.6645 34.2188 34.9027 33.803C34.8393 33.7687 34.7778 33.7325 34.7163 33.6964C32.9774 32.6424 32.1197 30.5834 32.4888 28.5859L32.6408 27.7615L32.6426 27.7597Z" fill="#5D3EBC" style="fill:#5D3EBC;fill:color(display-p3 0.3650 0.2430 0.7370);fill-opacity:1;"/>
<mask id="mask4_21184_6545" style="mask-type:alpha" maskUnits="userSpaceOnUse" x="32" y="27" width="23" height="22">
<path d="M32.6426 27.7597L52.8618 27.2915C53.9764 27.3024 54.7816 28.2315 54.7382 29.3451L52.8636 48.6049H48.2747L49.3876 32.9986L37.4088 34.2152C36.5511 34.3472 35.6645 34.2188 34.9027 33.803C34.8393 33.7687 34.7778 33.7325 34.7163 33.6964C32.9774 32.6424 32.1197 30.5834 32.4888 28.5859L32.6408 27.7615L32.6426 27.7597Z" fill="#422C85" style="fill:#422C85;fill:color(display-p3 0.2588 0.1725 0.5216);fill-opacity:1;"/>
</mask>
<g mask="url(#mask4_21184_6545)">
<path d="M53.6035 46.0347H47.8457V47.2639H53.6035V46.0347Z" fill="#D1D4DA" style="fill:#D1D4DA;fill:color(display-p3 0.8196 0.8314 0.8549);fill-opacity:1;"/>
<path d="M53.6035 44.2158H47.8457V45.4451H53.6035V44.2158Z" fill="#D1D4DA" style="fill:#D1D4DA;fill:color(display-p3 0.8196 0.8314 0.8549);fill-opacity:1;"/>
<path d="M43.6102 27.2979C43.1867 27.4298 32.3516 30.5717 32.3516 30.5717V27.2979H43.6102Z" fill="#332267" style="fill:#332267;fill:color(display-p3 0.2000 0.1333 0.4039);fill-opacity:1;"/>
</g>
<path d="M82.1955 62.0093H4.95042C4.39532 62.0093 3.94531 62.4593 3.94531 63.0144C3.94531 63.5695 4.39532 64.0195 4.95043 64.0195H82.1955C82.7506 64.0195 83.2006 63.5695 83.2006 63.0144C83.2006 62.4593 82.7506 62.0093 82.1955 62.0093Z" fill="#251A49" style="fill:#251A49;fill:color(display-p3 0.1451 0.1020 0.2863);fill-opacity:1;"/>
<path d="M24.9377 21.0457C25.0119 21.0818 25.0934 21.1017 25.1766 21.1017C25.2707 21.1017 25.3648 21.0764 25.4462 21.0276C25.5276 20.9788 25.5946 20.9083 25.638 20.8251C25.6851 20.742 25.7086 20.6498 25.7068 20.554C25.7068 20.4654 25.6851 20.3786 25.6434 20.3009C25.6 20.2268 25.5385 20.1671 25.4643 20.1237C25.3901 20.0803 25.3069 20.0568 25.2218 20.0532C25.1295 20.0532 25.0391 20.0803 24.9595 20.131C24.8744 20.1816 24.8056 20.2539 24.7622 20.3407C24.7152 20.4238 24.6916 20.516 24.6935 20.6118C24.6935 20.6986 24.7134 20.7854 24.7568 20.8631C24.7984 20.939 24.8617 21.0023 24.9377 21.0457Z" fill="#5D31C0" style="fill:#5D31C0;fill:color(display-p3 0.3647 0.1922 0.7529);fill-opacity:1;"/>
<path d="M21.5124 22.5279C21.5124 21.7958 20.9098 21.3149 20.0304 21.3149C19.151 21.3149 18.3223 21.9133 18.3223 23.2474C18.3223 24.267 18.9393 25.019 20.0069 25.019C20.6076 25.019 21.2663 24.6774 21.4346 24.4442C21.4346 24.4442 21.3206 24.0067 21.0093 24.0067C20.8447 24.0067 20.7253 24.07 20.5914 24.126C20.4267 24.1965 20.2512 24.2326 20.072 24.2326C19.7735 24.2326 19.2614 24.1133 19.2614 23.4734C19.2614 23.4734 19.502 23.5421 20.0521 23.5421C21.2283 23.5403 21.5142 23.045 21.5142 22.5279H21.5124ZM20.0684 22.1104C20.4737 22.1104 20.6674 22.3309 20.6674 22.5316C20.6674 22.7684 20.452 22.922 20.0648 22.922C19.502 22.922 19.2867 22.8407 19.2867 22.8407C19.2867 22.499 19.5545 22.1085 20.0684 22.1085V22.1104Z" fill="#5D3EBC" style="fill:#5D3EBC;fill:color(display-p3 0.3650 0.2430 0.7370);fill-opacity:1;"/>
<path d="M23.7074 24.2366C23.5608 24.233 23.4197 24.186 23.3021 24.0974C23.1845 24.0106 23.0976 23.8877 23.0542 23.7485C23.0071 23.5623 22.9836 23.3725 22.9854 23.1809L22.9908 22.0836H23.2858C23.5246 22.0836 23.7074 22.0149 23.8359 21.8757C23.9716 21.722 24.0404 21.5213 24.0295 21.3171H22.9908L22.9854 20.829C22.9854 20.6753 22.9854 20.5488 22.989 20.4548C22.9927 20.3608 22.9945 20.2848 22.9981 20.227C23.0017 20.1782 23.0071 20.1294 23.0144 20.0806C22.6995 20.0806 22.4607 20.1493 22.2942 20.2812C22.1277 20.4132 22.0463 20.6355 22.0463 20.9465L22.0391 23.3797C22.0391 24.3758 22.515 25.0266 23.4233 25.0266C23.8721 25.0266 24.2014 24.7861 24.2014 24.421C24.205 24.3414 24.1942 24.2601 24.1706 24.1842C24.0186 24.2185 23.8612 24.2366 23.7056 24.2348L23.7074 24.2366Z" fill="#5D3EBC" style="fill:#5D3EBC;fill:color(display-p3 0.3650 0.2430 0.7370);fill-opacity:1;"/>
<path d="M25.9856 24.2833C25.7848 24.2833 25.6545 24.1369 25.6545 23.8983V21.7687C25.6545 21.6747 25.6599 21.5988 25.6635 21.541C25.6671 21.4831 25.6744 21.4307 25.6798 21.3945C25.3595 21.3945 25.1171 21.4632 24.9524 21.5952C24.7877 21.7272 24.7045 21.9495 24.7045 22.2604L24.6973 24.0483C24.6973 24.6864 25.1116 25.0408 25.6291 25.0209C25.9567 25.0082 26.2389 24.8546 26.2389 24.5093C26.2389 24.4225 26.2317 24.3375 26.2154 24.2526C26.1394 24.2725 26.0616 24.2833 25.9838 24.2833H25.9856Z" fill="#5D3EBC" style="fill:#5D3EBC;fill:color(display-p3 0.3650 0.2430 0.7370);fill-opacity:1;"/>
<path d="M28.3158 21.4019C28.1168 21.4019 27.9177 21.4272 27.7223 21.4705C27.5269 21.5139 27.3423 21.5989 27.1831 21.7218C27.0112 21.8592 26.8773 22.0346 26.7923 22.237C26.6819 22.5046 26.6312 22.7938 26.6421 23.0831V24.09C26.6421 24.4009 26.6819 24.6883 26.8701 24.8275C27.0745 24.9812 27.3116 24.9884 27.6282 24.9884C27.621 24.9577 27.6174 24.8673 27.6101 24.8077C27.6029 24.7317 27.5993 24.6558 27.6011 24.5799C27.5975 24.4823 27.5975 24.3593 27.5975 24.2057V22.9131C27.5975 22.6094 27.6481 22.219 28.1837 22.1756C28.4859 22.1485 28.7537 22.0382 28.7537 21.7074C28.7537 21.6043 28.7356 21.5013 28.6994 21.4037H28.3176L28.3158 21.4019Z" fill="#5D3EBC" style="fill:#5D3EBC;fill:color(display-p3 0.3650 0.2430 0.7370);fill-opacity:1;"/>
<path d="M16.2029 21.3149C15.1028 21.3149 14.5273 22.0832 14.5273 23.0196C14.5273 23.8856 15.0575 24.6936 16.0184 24.6936C16.5178 24.6936 16.8055 24.4839 16.8797 24.417V24.8509C16.8797 25.348 16.6861 25.6788 16.183 25.6788C15.9785 25.677 15.7759 25.6282 15.5931 25.536C15.4466 25.4673 15.3344 25.3824 15.1878 25.3824C14.8132 25.3824 14.7083 25.8434 14.7119 25.847C14.9924 26.2085 15.6366 26.4761 16.1758 26.4761C17.2379 26.4761 17.8242 25.8542 17.8242 24.6304V23.2004C17.8206 22.0814 17.3284 21.3149 16.2029 21.3149ZM16.1957 23.8639C15.7813 23.8639 15.4683 23.6036 15.4683 23.0323C15.4683 22.4249 15.7904 22.1067 16.1957 22.1067C16.601 22.1067 16.8869 22.3472 16.8869 22.9853C16.8869 23.6433 16.5702 23.8639 16.1957 23.8639Z" fill="#5D3EBC" style="fill:#5D3EBC;fill:color(display-p3 0.3650 0.2430 0.7370);fill-opacity:1;"/>
<path d="M44.9583 5.25715C44.9583 5.25715 44.5222 4.85764 44.0879 5.25715" stroke="#251A49" style="stroke:#251A49;stroke:color(display-p3 0.1451 0.1020 0.2863);stroke-opacity:1;" stroke-width="0.72" stroke-miterlimit="10"/>
<path d="M13.1088 32.854C10.0381 32.0008 7.79434 29.1644 7.84862 25.8129L7.89262 24.96L32.2359 33.6C31.5953 36.032 29.091 36.5975 27.999 36.5762H17.238C15.9569 36.5762 14.8549 35.6759 14.6016 34.4232C14.4478 33.6567 13.8633 33.0637 13.1088 32.854Z" fill="#5D3EBC" style="fill:#5D3EBC;fill:color(display-p3 0.3650 0.2430 0.7370);fill-opacity:1;"/>
</svg>
