<svg width="40" height="40" viewBox="0 0 40 40" fill="none" xmlns="http://www.w3.org/2000/svg">
<path d="M25.8327 5.625C26.638 5.625 27.2905 6.27777 27.2907 7.08301V8.54004H31.6667L31.8161 8.54785C32.5509 8.62289 33.1244 9.24351 33.1247 9.99805V29.166L33.1188 29.3906C33.074 30.2739 32.7656 31.0869 32.2731 31.7559L34.1677 33.6504C34.6558 34.1385 34.6557 34.9298 34.1677 35.418C33.6795 35.906 32.8882 35.9061 32.4001 35.418L30.2546 33.2725C30.2428 33.2768 30.2303 33.279 30.2184 33.2832L27.9762 31.041H28.0231L9.37468 12.3926V12.4395L6.87663 9.94238C6.8773 9.9271 6.87754 9.91162 6.87859 9.89648L5.88347 8.90137C5.3957 8.41321 5.39553 7.62184 5.88347 7.13379C6.37152 6.64581 7.16288 6.646 7.65105 7.13379L9.0573 8.54004H12.7077V7.08301C12.7079 6.27792 13.3616 5.62525 14.1667 5.625C14.9719 5.62509 15.6245 6.27783 15.6247 7.08301V8.54004H24.3747V7.08301C24.3749 6.27798 25.0277 5.62533 25.8327 5.625ZM9.37468 19.1602V29.166C9.375 30.2011 10.2146 31.0408 11.2497 31.041H21.2555L23.7555 33.541H11.2497L11.0241 33.5352C8.78749 33.4213 6.99397 31.6273 6.88054 29.3906L6.87468 29.166V16.6602L9.37468 19.1602ZM18.8737 18.3564C18.9928 18.2766 19.1365 18.2296 19.2907 18.2295H26.5407C26.9547 18.2295 27.2903 18.5656 27.2907 18.9795V20.3965C27.2907 20.8107 26.9549 21.1465 26.5407 21.1465H21.6637L30.4557 29.9385C30.5627 29.7027 30.6246 29.4417 30.6247 29.166V11.04H27.2907V11.458C27.2907 12.2634 26.6381 12.917 25.8327 12.917C25.0275 12.9167 24.3747 12.2632 24.3747 11.458V11.04H15.6247V11.458C15.6247 12.2634 14.972 12.9169 14.1667 12.917C13.3615 12.9167 12.7077 12.2633 12.7077 11.458V11.04H11.5573L18.8737 18.3564ZM17.194 26.9795H13.4577C13.044 26.979 12.7079 26.6432 12.7077 26.2295V24.8125C12.7078 24.3987 13.044 24.063 13.4577 24.0625H14.276L17.194 26.9795Z" fill="#5D3EBC" style="fill:#5D3EBC;fill:color(display-p3 0.3647 0.2431 0.7373);fill-opacity:1;"/>
</svg>
