<svg width="40" height="40" viewBox="0 0 40 40" fill="none" xmlns="http://www.w3.org/2000/svg">
<path d="M31.2499 12.5015C31.9402 12.5015 32.4999 13.0611 32.4999 13.7515V21.2515C32.4999 21.9418 31.9402 22.5015 31.2499 22.5015C30.5596 22.5014 29.9999 21.9418 29.9999 21.2515V16.769L22.7587 24.0103C22.5243 24.2447 22.2064 24.3765 21.8749 24.3765C21.5434 24.3764 21.2255 24.2447 20.9911 24.0103L17.4999 20.519L9.63367 28.3853C9.14551 28.8734 8.35425 28.8734 7.86609 28.3853C7.37799 27.8971 7.37795 27.1058 7.86609 26.6177L16.6161 17.8677L16.7079 17.7847C16.9303 17.6025 17.2098 17.5015 17.4999 17.5015C17.8314 17.5015 18.1493 17.6333 18.3837 17.8677L21.8749 21.3589L28.2323 15.0015H23.7499C23.0596 15.0014 22.4999 14.4418 22.4999 13.7515C22.4999 13.0611 23.0596 12.5015 23.7499 12.5015H31.2499Z" fill="#5D3EBC" style="fill:#5D3EBC;fill:color(display-p3 0.3647 0.2431 0.7373);fill-opacity:1;"/>
</svg>
