<svg width="32" height="32" viewBox="0 0 32 32" fill="none" xmlns="http://www.w3.org/2000/svg">
<path d="M0 16C0 7.16344 7.16344 0 16 0C24.8366 0 32 7.16344 32 16C32 24.8366 24.8366 32 16 32C7.16344 32 0 24.8366 0 16Z" fill="#F5F5F5" style="fill:#F5F5F5;fill:color(display-p3 0.9608 0.9608 0.9608);fill-opacity:1;"/>
<g clip-path="url(#clip0_21274_13627)">
<rect x="-0.800781" y="4" width="33.6" height="24" rx="2.4" fill="white" style="fill:white;fill-opacity:1;"/>
<mask id="mask0_21274_13627" style="mask-type:luminance" maskUnits="userSpaceOnUse" x="-1" y="4" width="34" height="24">
<rect x="-0.800781" y="4" width="33.6" height="24" rx="9.6" fill="white" style="fill:white;fill-opacity:1;"/>
</mask>
<g mask="url(#mask0_21274_13627)">
<rect x="-0.800781" y="4" width="33.6" height="24" fill="#043CAE" style="fill:#043CAE;fill:color(display-p3 0.0157 0.2353 0.6824);fill-opacity:1;"/>
<path d="M16.7988 24.0005L17.1299 25.1313L15.999 24.8003L14.8672 25.1313L15.1982 24.0005L14.8672 22.8687L15.999 23.1997L17.1299 22.8687L16.7988 24.0005ZM12.7988 22.9282L13.1299 24.0601L11.999 23.728L10.8672 24.0601L11.1982 22.9282L10.8672 21.7964L11.999 22.1284L13.1299 21.7964L12.7988 22.9282ZM20.7988 22.9282L21.1299 24.0601L19.999 23.728L18.8672 24.0601L19.1982 22.9282L18.8672 21.7964L19.999 22.1284L21.1299 21.7964L20.7988 22.9282ZM9.87012 20.0005L10.2021 21.1313L9.07031 20.8003L7.93945 21.1313L8.27051 20.0005L7.93945 18.8687L9.07031 19.1997L10.2021 18.8687L9.87012 20.0005ZM23.7266 20.0005L24.0586 21.1313L22.9268 20.8003L21.7949 21.1313L22.127 20.0005L21.7949 18.8687L22.9268 19.1997L24.0586 18.8687L23.7266 20.0005ZM8.79883 16.0005L9.12988 17.1313L7.99902 16.8003L6.86719 17.1313L7.19824 16.0005L6.86719 14.8687L7.99902 15.1997L9.12988 14.8687L8.79883 16.0005ZM24.7988 16.0005L25.1299 17.1313L23.999 16.8003L22.8672 17.1313L23.1982 16.0005L22.8672 14.8687L23.999 15.1997L25.1299 14.8687L24.7988 16.0005ZM9.87012 12.0005L10.2021 13.1313L9.07031 12.8003L7.93945 13.1313L8.27051 12.0005L7.93945 10.8687L9.07031 11.1997L10.2021 10.8687L9.87012 12.0005ZM23.7266 12.0005L24.0586 13.1313L22.9268 12.8003L21.7949 13.1313L22.127 12.0005L21.7949 10.8687L22.9268 11.1997L24.0586 10.8687L23.7266 12.0005ZM12.7988 9.07178L13.1299 10.2036L11.999 9.87158L10.8672 10.2036L11.1982 9.07178L10.8672 7.94092L11.999 8.27197L13.1299 7.94092L12.7988 9.07178ZM20.7988 9.07178L21.1299 10.2036L19.999 9.87158L18.8672 10.2036L19.1982 9.07178L18.8672 7.94092L19.999 8.27197L21.1299 7.94092L20.7988 9.07178ZM16.7988 8.00049L17.1299 9.13135L15.999 8.80029L14.8672 9.13135L15.1982 8.00049L14.8672 6.86865L15.999 7.19971L17.1299 6.86865L16.7988 8.00049Z" fill="#FFD429" style="fill:#FFD429;fill:color(display-p3 1.0000 0.8314 0.1608);fill-opacity:1;"/>
</g>
</g>
<path d="M16 4.59961C22.296 4.59961 27.4004 9.70395 27.4004 16C27.4004 22.296 22.296 27.4004 16 27.4004C9.70395 27.4004 4.59961 22.296 4.59961 16C4.59961 9.70395 9.70395 4.59961 16 4.59961Z" stroke="white" style="stroke:white;stroke-opacity:1;" stroke-width="1.2"/>
<defs>
<clipPath id="clip0_21274_13627">
<path d="M4 16C4 9.37258 9.37258 4 16 4C22.6274 4 28 9.37258 28 16C28 22.6274 22.6274 28 16 28C9.37258 28 4 22.6274 4 16Z" fill="white" style="fill:white;fill-opacity:1;"/>
</clipPath>
</defs>
</svg>
