<svg width="32" height="32" viewBox="0 0 32 32" fill="none" xmlns="http://www.w3.org/2000/svg">
<path d="M0 16C0 7.16344 7.16344 0 16 0C24.8366 0 32 7.16344 32 16C32 24.8366 24.8366 32 16 32C7.16344 32 0 24.8366 0 16Z" fill="#F5F5F5" style="fill:#F5F5F5;fill:color(display-p3 0.9608 0.9608 0.9608);fill-opacity:1;"/>
<g clip-path="url(#clip0_21274_13624)">
<rect x="-0.800781" y="4" width="33.6" height="24" rx="9.6" fill="white" style="fill:white;fill-opacity:1;"/>
<mask id="mask0_21274_13624" style="mask-type:luminance" maskUnits="userSpaceOnUse" x="-1" y="4" width="34" height="24">
<rect x="-0.800781" y="4" width="33.6" height="24" rx="9.6" fill="white" style="fill:white;fill-opacity:1;"/>
</mask>
<g mask="url(#mask0_21274_13624)">
<path d="M32.7988 28H-0.800781V26.4004H32.7988V28ZM32.7988 24.7998H-0.800781V23.2002H32.7988V24.7998ZM32.7988 21.5996H-0.800781V20H32.7988V21.5996ZM32.7988 18.4004H-0.800781V16.7998H32.7988V18.4004ZM32.7988 15.2002H-0.800781V13.5996H32.7988V15.2002ZM32.7988 12H-0.800781V10.4004H32.7988V12ZM32.7988 8.7998H-0.800781V7.2002H32.7988V8.7998ZM32.7988 5.59961H-0.800781V4H32.7988V5.59961Z" fill="#D02F44" style="fill:#D02F44;fill:color(display-p3 0.8157 0.1843 0.2667);fill-opacity:1;"/>
<rect x="-0.800781" y="4" width="14.4" height="11.2" fill="#46467F" style="fill:#46467F;fill:color(display-p3 0.2745 0.2745 0.4980);fill-opacity:1;"/>
<path d="M1.59863 12.0004C2.04046 12.0004 2.39844 12.3583 2.39844 12.8002C2.39833 13.2419 2.0404 13.6 1.59863 13.6C1.15696 13.5999 0.798933 13.2418 0.798828 12.8002C0.798828 12.3584 1.15689 12.0005 1.59863 12.0004ZM4.79883 12.0004C5.24066 12.0004 5.59863 12.3583 5.59863 12.8002C5.59853 13.2419 5.24059 13.6 4.79883 13.6C4.35707 13.6 3.99913 13.2419 3.99902 12.8002C3.99902 12.3583 4.357 12.0004 4.79883 12.0004ZM7.99902 12.0004C8.44076 12.0005 8.79883 12.3584 8.79883 12.8002C8.79872 13.2418 8.4407 13.5999 7.99902 13.6C7.55726 13.6 7.19932 13.2419 7.19922 12.8002C7.19922 12.3583 7.5572 12.0004 7.99902 12.0004ZM11.1992 12.0004C11.6409 12.0006 11.999 12.3585 11.999 12.8002C11.9989 13.2418 11.6408 13.5998 11.1992 13.6C10.7575 13.6 10.3985 13.2419 10.3984 12.8002C10.3984 12.3583 10.7574 12.0004 11.1992 12.0004ZM3.19922 10.3998C3.64074 10.4 3.99881 10.7581 3.99902 11.1996C3.99902 11.6413 3.64087 12.0002 3.19922 12.0004C2.75739 12.0004 2.39844 11.6414 2.39844 11.1996C2.39865 10.7579 2.75752 10.3998 3.19922 10.3998ZM6.39844 10.3998C6.84014 10.3998 7.19901 10.7579 7.19922 11.1996C7.19922 11.6414 6.84027 12.0004 6.39844 12.0004C5.95679 12.0002 5.59863 11.6413 5.59863 11.1996C5.59884 10.7581 5.95692 10.4 6.39844 10.3998ZM9.59863 10.3998C10.0403 10.3998 10.3982 10.7579 10.3984 11.1996C10.3984 11.6414 10.0405 12.0004 9.59863 12.0004C9.15689 12.0003 8.79883 11.6413 8.79883 11.1996C8.79904 10.758 9.15703 10.3999 9.59863 10.3998ZM1.59863 8.80017C2.04046 8.80017 2.39844 9.15815 2.39844 9.59998C2.39844 10.0418 2.04046 10.3998 1.59863 10.3998C1.15689 10.3997 0.798828 10.0417 0.798828 9.59998C0.798828 9.15821 1.15689 8.80028 1.59863 8.80017ZM4.79883 8.80017C5.24066 8.80017 5.59863 9.15815 5.59863 9.59998C5.59863 10.0418 5.24066 10.3998 4.79883 10.3998C4.357 10.3998 3.99902 10.0418 3.99902 9.59998C3.99902 9.15815 4.357 8.80017 4.79883 8.80017ZM7.99902 8.80017C8.44076 8.80028 8.79883 9.15821 8.79883 9.59998C8.79883 10.0417 8.44076 10.3997 7.99902 10.3998C7.5572 10.3998 7.19922 10.0418 7.19922 9.59998C7.19922 9.15815 7.5572 8.80017 7.99902 8.80017ZM11.1992 8.80017C11.6409 8.80038 11.999 9.15828 11.999 9.59998C11.999 10.0417 11.6409 10.3996 11.1992 10.3998C10.7574 10.3998 10.3984 10.0418 10.3984 9.59998C10.3984 9.15815 10.7574 8.80017 11.1992 8.80017ZM3.19922 7.19958C3.64087 7.1998 3.99902 7.55867 3.99902 8.00037C3.99881 8.44188 3.64074 8.79996 3.19922 8.80017C2.75752 8.80017 2.39865 8.44201 2.39844 8.00037C2.39844 7.55854 2.75739 7.19958 3.19922 7.19958ZM6.39844 7.19958C6.84027 7.19958 7.19922 7.55854 7.19922 8.00037C7.19901 8.44201 6.84014 8.80017 6.39844 8.80017C5.95692 8.79996 5.59884 8.44188 5.59863 8.00037C5.59863 7.55867 5.95679 7.1998 6.39844 7.19958ZM9.59863 7.19958C10.0405 7.19958 10.3984 7.55854 10.3984 8.00037C10.3982 8.44201 10.0403 8.80017 9.59863 8.80017C9.15703 8.80007 8.79904 8.44195 8.79883 8.00037C8.79883 7.5586 9.15689 7.19969 9.59863 7.19958ZM1.59863 5.59998C2.0404 5.59998 2.39833 5.95804 2.39844 6.39978C2.39844 6.84161 2.04046 7.19958 1.59863 7.19958C1.15689 7.19948 0.798828 6.84154 0.798828 6.39978C0.798934 5.95811 1.15696 5.60008 1.59863 5.59998ZM4.79883 5.59998C5.24059 5.59998 5.59853 5.95804 5.59863 6.39978C5.59863 6.84161 5.24066 7.19958 4.79883 7.19958C4.357 7.19958 3.99902 6.84161 3.99902 6.39978C3.99913 5.95804 4.35707 5.59998 4.79883 5.59998ZM7.99902 5.59998C8.4407 5.60008 8.79872 5.95811 8.79883 6.39978C8.79883 6.84154 8.44076 7.19948 7.99902 7.19958C7.5572 7.19958 7.19922 6.84161 7.19922 6.39978C7.19932 5.95804 7.55726 5.59998 7.99902 5.59998ZM11.1992 5.59998C11.6408 5.60019 11.9989 5.95817 11.999 6.39978C11.999 6.84148 11.6409 7.19937 11.1992 7.19958C10.7574 7.19958 10.3984 6.84161 10.3984 6.39978C10.3985 5.95804 10.7575 5.59998 11.1992 5.59998Z" fill="white" style="fill:white;fill-opacity:1;"/>
</g>
</g>
<path d="M16 4.59961C22.296 4.59961 27.4004 9.70395 27.4004 16C27.4004 22.296 22.296 27.4004 16 27.4004C9.70395 27.4004 4.59961 22.296 4.59961 16C4.59961 9.70395 9.70395 4.59961 16 4.59961Z" stroke="white" style="stroke:white;stroke-opacity:1;" stroke-width="1.2"/>
<defs>
<clipPath id="clip0_21274_13624">
<path d="M4 16C4 9.37258 9.37258 4 16 4C22.6274 4 28 9.37258 28 16C28 22.6274 22.6274 28 16 28C9.37258 28 4 22.6274 4 16Z" fill="white" style="fill:white;fill-opacity:1;"/>
</clipPath>
</defs>
</svg>
