<svg width="24" height="24" viewBox="0 0 24 24" fill="none" xmlns="http://www.w3.org/2000/svg">
<path d="M6.22461 13.7812C6.84111 13.7812 7.41542 13.9585 7.90332 14.2617C7.74366 14.5001 7.60803 14.7512 7.50488 15.0146C7.29858 15.5418 7.18562 16.117 7.18555 16.7178V19.5H3.75C3.33579 19.5 3 19.1642 3 18.75V17.0625C3 15.2664 4.42788 13.7815 6.22461 13.7812ZM12.0195 12.8125C13.6061 12.8127 15.1938 13.8947 15.7441 15.3008H15.7451V15.3018C15.7454 15.3026 15.7456 15.3041 15.7461 15.3057C15.7472 15.3089 15.7484 15.3136 15.75 15.3193C15.7534 15.3312 15.7573 15.3473 15.7617 15.3672C15.7706 15.4072 15.7803 15.4586 15.79 15.5215C15.8095 15.6478 15.8288 15.809 15.8467 15.9961C15.8824 16.3698 15.9127 16.833 15.9375 17.3018C15.9871 18.2401 16.0127 19.183 16.0127 19.4512C16.0127 19.4677 16.0145 19.484 16.0166 19.5H7.93555V16.7178C7.93562 16.2117 8.03138 15.7294 8.2041 15.2881C8.75086 13.8916 10.4222 12.8126 12.0195 12.8125ZM17.7754 13.7812C19.5721 13.7815 21 15.2664 21 17.0625V18.75C21 19.1642 20.6642 19.5 20.25 19.5H16.7578C16.7599 19.484 16.7627 19.4677 16.7627 19.4512C16.7627 19.1643 16.7364 18.2063 16.6865 17.2617C16.6615 16.7886 16.6299 16.3137 16.5928 15.9248C16.5742 15.7306 16.5538 15.5535 16.5312 15.4072C16.5103 15.271 16.4836 15.1303 16.4434 15.0273C16.3419 14.7681 16.2089 14.5211 16.0557 14.2852C16.552 13.9665 17.142 13.7812 17.7754 13.7812ZM6.22461 7.875C7.56589 7.875 8.625 8.98228 8.625 10.3125C8.625 11.6427 7.56589 12.75 6.22461 12.75C4.88351 12.7498 3.8252 11.6426 3.8252 10.3125C3.8252 8.98241 4.88351 7.87522 6.22461 7.875ZM17.7754 7.875C19.1165 7.87521 20.1748 8.98241 20.1748 10.3125C20.1748 11.6426 19.1165 12.7498 17.7754 12.75C16.4341 12.75 15.375 11.6427 15.375 10.3125C15.375 8.98228 16.4341 7.875 17.7754 7.875ZM12 4.5C13.7969 4.5 15.2246 5.98504 15.2246 7.78125C15.2246 9.57746 13.7969 11.0625 12 11.0625C10.2031 11.0625 8.77539 9.57746 8.77539 7.78125C8.77539 5.98504 10.2031 4.5 12 4.5Z" fill="white" style="fill:white;fill-opacity:1;"/>
</svg>
