<svg width="40" height="40" viewBox="0 0 40 40" fill="none" xmlns="http://www.w3.org/2000/svg">
<path d="M20 7.5C26.9036 7.5 32.5 13.0964 32.5 20C32.5 26.9036 26.9036 32.5 20 32.5C13.0964 32.5 7.5 26.9036 7.5 20C7.5 13.0964 13.0964 7.5 20 7.5ZM20 10C14.4772 10 10 14.4772 10 20C10 25.5228 14.4772 30 20 30C25.5228 30 30 25.5228 30 20C30 14.4772 25.5228 10 20 10ZM22.6514 22.6514C23.1394 22.1633 23.9308 22.1636 24.4189 22.6514C24.9071 23.1395 24.9071 23.9308 24.4189 24.4189C21.9782 26.8597 18.0218 26.8597 15.5811 24.4189C15.0929 23.9308 15.0929 23.1395 15.5811 22.6514C16.0692 22.1636 16.8606 22.1633 17.3486 22.6514C18.8131 24.1158 21.1869 24.1158 22.6514 22.6514ZM16.2627 16.25C16.953 16.2501 17.5127 16.8097 17.5127 17.5C17.5127 18.1903 16.953 18.7499 16.2627 18.75H16.25C15.5596 18.75 15 18.1904 15 17.5C15 16.8096 15.5596 16.25 16.25 16.25H16.2627ZM23.7627 16.25C24.453 16.2501 25.0127 16.8097 25.0127 17.5C25.0127 18.1903 24.453 18.7499 23.7627 18.75H23.75C23.0596 18.75 22.5 18.1904 22.5 17.5C22.5 16.8096 23.0596 16.25 23.75 16.25H23.7627Z" fill="#5D3EBC" style="fill:#5D3EBC;fill:color(display-p3 0.3647 0.2431 0.7373);fill-opacity:1;"/>
</svg>
